<svg width="143" height="144" viewBox="0 0 143 144" fill="none" xmlns="http://www.w3.org/2000/svg">
<path d="M25.3516 39.9243H34.1011" stroke="#1E1E1E" stroke-width="0.4" stroke-miterlimit="10"/>
<path d="M25.1172 39.6306C25.1172 39.6306 26.7615 37.8193 29.727 37.8193H29.7563C32.7218 37.8193 34.3661 39.6306 34.3661 39.6306" stroke="#1E1E1E" stroke-width="0.4" stroke-miterlimit="10"/>
<path d="M26.6556 40.6147H26.127V52.1383H26.6556V40.6147Z" stroke="#1E1E1E" stroke-width="0.4" stroke-miterlimit="10"/>
<path d="M33.3509 40.6147H32.8223V52.1383H33.3509V40.6147Z" stroke="#1E1E1E" stroke-width="0.4" stroke-miterlimit="10"/>
<path d="M33.646 53.9463H25.8359V54.8439H33.646V53.9463Z" stroke="#1E1E1E" stroke-width="0.4" stroke-miterlimit="10"/>
<path d="M27.4377 52.1509H26.1484V53.9461H27.4377V52.1509Z" stroke="#1E1E1E" stroke-width="0.4" stroke-miterlimit="10"/>
<path d="M33.3576 52.1509H32.0684V53.9461H33.3576V52.1509Z" stroke="#1E1E1E" stroke-width="0.4" stroke-miterlimit="10"/>
<path d="M31.3964 52.1509H30.3691V53.9461H31.3964V52.1509Z" stroke="#1E1E1E" stroke-width="0.4" stroke-miterlimit="10"/>
<path d="M29.4042 52.1509H28.377V53.9461H29.4042V52.1509Z" stroke="#1E1E1E" stroke-width="0.4" stroke-miterlimit="10"/>
<path d="M32.1975 41.9778H27.2852V52.1449H32.1975V41.9778Z" stroke="#1E1E1E" stroke-width="0.4" stroke-miterlimit="10"/>
<path d="M29.0547 41.9207V52.0878" stroke="#1E1E1E" stroke-width="0.4" stroke-miterlimit="10"/>
<path d="M30.6543 41.9778V52.1449" stroke="#1E1E1E" stroke-width="0.4" stroke-miterlimit="10"/>
<path d="M27.2852 44.5483H32.1975" stroke="#1E1E1E" stroke-width="0.4" stroke-miterlimit="10"/>
<path d="M27.2852 47.0618H32.1975" stroke="#1E1E1E" stroke-width="0.4" stroke-miterlimit="10"/>
<path d="M27.2852 49.5752H32.1975" stroke="#1E1E1E" stroke-width="0.4" stroke-miterlimit="10"/>
<path d="M26.6562 40.6147H32.822" stroke="#1E1E1E" stroke-width="0.4" stroke-miterlimit="10"/>
<path d="M26.668 41.3455H32.8337" stroke="#1E1E1E" stroke-width="0.4" stroke-miterlimit="10"/>
<path d="M24.657 53.4141H21V54.212H24.657V53.4141Z" stroke="#1E1E1E" stroke-width="0.4" stroke-miterlimit="10"/>
<path d="M24.9566 54.2122H20.7012V54.8106H24.9566V54.2122Z" stroke="#1E1E1E" stroke-width="0.4" stroke-miterlimit="10"/>
<path d="M24.2928 53.3643H21.3672L21.5667 34.1816H24.0933L24.2928 53.3643Z" stroke="#1E1E1E" stroke-width="0.4" stroke-miterlimit="10"/>
<path d="M24.6414 31.2341H20.9844V32.032H24.6414V31.2341Z" stroke="#1E1E1E" stroke-width="0.4" stroke-miterlimit="10"/>
<path d="M24.403 33.5281H21.2207V34.193H24.403V33.5281Z" stroke="#1E1E1E" stroke-width="0.4" stroke-miterlimit="10"/>
<path d="M24.403 32.0652H21.2207V32.7301H24.403V32.0652Z" stroke="#1E1E1E" stroke-width="0.4" stroke-miterlimit="10"/>
<path d="M24.05 32.7634H21.5898V33.4948H24.05V32.7634Z" stroke="#1E1E1E" stroke-width="0.4" stroke-miterlimit="10"/>
<path d="M38.3074 53.4143H34.6504V54.2122H38.3074V53.4143Z" stroke="#1E1E1E" stroke-width="0.4" stroke-miterlimit="10"/>
<path d="M38.607 54.2122H34.3516V54.8106H38.607V54.2122Z" stroke="#1E1E1E" stroke-width="0.4" stroke-miterlimit="10"/>
<path d="M37.9412 53.3643H35.0156L35.2151 34.1816H37.7418L37.9412 53.3643Z" stroke="#1E1E1E" stroke-width="0.4" stroke-miterlimit="10"/>
<path d="M38.2898 31.2341H34.6328V32.032H38.2898V31.2341Z" stroke="#1E1E1E" stroke-width="0.4" stroke-miterlimit="10"/>
<path d="M38.0534 33.5281H34.8711V34.193H38.0534V33.5281Z" stroke="#1E1E1E" stroke-width="0.4" stroke-miterlimit="10"/>
<path d="M38.0534 32.0652H34.8711V32.7301H38.0534V32.0652Z" stroke="#1E1E1E" stroke-width="0.4" stroke-miterlimit="10"/>
<path d="M37.7024 32.7634H35.2422V33.4948H37.7024V32.7634Z" stroke="#1E1E1E" stroke-width="0.4" stroke-miterlimit="10"/>
<path d="M51.9558 53.4141H48.2988V54.212H51.9558V53.4141Z" stroke="#1E1E1E" stroke-width="0.4" stroke-miterlimit="10"/>
<path d="M52.2554 54.2122H48V54.8106H52.2554V54.2122Z" stroke="#1E1E1E" stroke-width="0.4" stroke-miterlimit="10"/>
<path d="M51.5897 53.3643H48.6641L48.8635 34.1816H51.3902L51.5897 53.3643Z" stroke="#1E1E1E" stroke-width="0.4" stroke-miterlimit="10"/>
<path d="M51.9383 31.2341H48.2812V32.032H51.9383V31.2341Z" stroke="#1E1E1E" stroke-width="0.4" stroke-miterlimit="10"/>
<path d="M51.7018 33.5281H48.5195V34.193H51.7018V33.5281Z" stroke="#1E1E1E" stroke-width="0.4" stroke-miterlimit="10"/>
<path d="M51.7018 32.0652H48.5195V32.7301H51.7018V32.0652Z" stroke="#1E1E1E" stroke-width="0.4" stroke-miterlimit="10"/>
<path d="M51.3508 32.7634H48.8906V33.4948H51.3508V32.7634Z" stroke="#1E1E1E" stroke-width="0.4" stroke-miterlimit="10"/>
<path d="M65.6062 53.4141H61.9492V54.212H65.6062V53.4141Z" stroke="#1E1E1E" stroke-width="0.4" stroke-miterlimit="10"/>
<path d="M65.9058 54.2122H61.6504V54.8106H65.9058V54.2122Z" stroke="#1E1E1E" stroke-width="0.4" stroke-miterlimit="10"/>
<path d="M65.242 53.3643H62.3164L62.5159 34.1816H65.0425L65.242 53.3643Z" stroke="#1E1E1E" stroke-width="0.4" stroke-miterlimit="10"/>
<path d="M65.5906 31.2341H61.9336V32.032H65.5906V31.2341Z" stroke="#1E1E1E" stroke-width="0.4" stroke-miterlimit="10"/>
<path d="M65.3522 33.5281H62.1699V34.193H65.3522V33.5281Z" stroke="#1E1E1E" stroke-width="0.4" stroke-miterlimit="10"/>
<path d="M65.3522 32.0652H62.1699V32.7301H65.3522V32.0652Z" stroke="#1E1E1E" stroke-width="0.4" stroke-miterlimit="10"/>
<path d="M64.9992 32.7634H62.5391V33.4948H64.9992V32.7634Z" stroke="#1E1E1E" stroke-width="0.4" stroke-miterlimit="10"/>
<path d="M79.2547 53.4141H75.5977V54.212H79.2547V53.4141Z" stroke="#1E1E1E" stroke-width="0.4" stroke-miterlimit="10"/>
<path d="M79.5543 54.2122H75.2988V54.8106H79.5543V54.2122Z" stroke="#1E1E1E" stroke-width="0.4" stroke-miterlimit="10"/>
<path d="M78.8904 53.3643H75.9648L76.1643 34.1816H78.691L78.8904 53.3643Z" stroke="#1E1E1E" stroke-width="0.4" stroke-miterlimit="10"/>
<path d="M79.239 31.2341H75.582V32.032H79.239V31.2341Z" stroke="#1E1E1E" stroke-width="0.4" stroke-miterlimit="10"/>
<path d="M79.0006 33.5281H75.8184V34.193H79.0006V33.5281Z" stroke="#1E1E1E" stroke-width="0.4" stroke-miterlimit="10"/>
<path d="M79.0006 32.0652H75.8184V32.7301H79.0006V32.0652Z" stroke="#1E1E1E" stroke-width="0.4" stroke-miterlimit="10"/>
<path d="M78.6477 32.7634H76.1875V33.4948H78.6477V32.7634Z" stroke="#1E1E1E" stroke-width="0.4" stroke-miterlimit="10"/>
<path d="M92.9051 53.4141H89.248V54.212H92.9051V53.4141Z" stroke="#1E1E1E" stroke-width="0.4" stroke-miterlimit="10"/>
<path d="M93.2046 54.2122H88.9492V54.8106H93.2046V54.2122Z" stroke="#1E1E1E" stroke-width="0.4" stroke-miterlimit="10"/>
<path d="M92.5389 53.3643H89.6133L89.8128 34.1816H92.3394L92.5389 53.3643Z" stroke="#1E1E1E" stroke-width="0.4" stroke-miterlimit="10"/>
<path d="M92.8875 31.2341H89.2305V32.032H92.8875V31.2341Z" stroke="#1E1E1E" stroke-width="0.4" stroke-miterlimit="10"/>
<path d="M92.651 33.5281H89.4688V34.193H92.651V33.5281Z" stroke="#1E1E1E" stroke-width="0.4" stroke-miterlimit="10"/>
<path d="M92.651 32.0652H89.4688V32.7301H92.651V32.0652Z" stroke="#1E1E1E" stroke-width="0.4" stroke-miterlimit="10"/>
<path d="M92.3 32.7634H89.8398V33.4948H92.3V32.7634Z" stroke="#1E1E1E" stroke-width="0.4" stroke-miterlimit="10"/>
<path d="M106.555 53.4141H102.898V54.212H106.555V53.4141Z" stroke="#1E1E1E" stroke-width="0.4" stroke-miterlimit="10"/>
<path d="M106.855 54.2122H102.6V54.8106H106.855V54.2122Z" stroke="#1E1E1E" stroke-width="0.4" stroke-miterlimit="10"/>
<path d="M106.191 53.3643H103.266L103.465 34.1816H105.992L106.191 53.3643Z" stroke="#1E1E1E" stroke-width="0.4" stroke-miterlimit="10"/>
<path d="M106.54 31.2341H102.883V32.032H106.54V31.2341Z" stroke="#1E1E1E" stroke-width="0.4" stroke-miterlimit="10"/>
<path d="M106.301 33.5281H103.119V34.193H106.301V33.5281Z" stroke="#1E1E1E" stroke-width="0.4" stroke-miterlimit="10"/>
<path d="M106.301 32.0652H103.119V32.7301H106.301V32.0652Z" stroke="#1E1E1E" stroke-width="0.4" stroke-miterlimit="10"/>
<path d="M105.948 32.7634H103.488V33.4948H105.948V32.7634Z" stroke="#1E1E1E" stroke-width="0.4" stroke-miterlimit="10"/>
<path d="M120.206 53.4141H116.549V54.212H120.206V53.4141Z" stroke="#1E1E1E" stroke-width="0.4" stroke-miterlimit="10"/>
<path d="M120.505 54.2122H116.25V54.8106H120.505V54.2122Z" stroke="#1E1E1E" stroke-width="0.4" stroke-miterlimit="10"/>
<path d="M119.84 53.3643H116.914L117.114 34.1816H119.64L119.84 53.3643Z" stroke="#1E1E1E" stroke-width="0.4" stroke-miterlimit="10"/>
<path d="M120.188 31.2341H116.531V32.032H120.188V31.2341Z" stroke="#1E1E1E" stroke-width="0.4" stroke-miterlimit="10"/>
<path d="M119.952 33.5281H116.77V34.193H119.952V33.5281Z" stroke="#1E1E1E" stroke-width="0.4" stroke-miterlimit="10"/>
<path d="M119.952 32.0652H116.77V32.7301H119.952V32.0652Z" stroke="#1E1E1E" stroke-width="0.4" stroke-miterlimit="10"/>
<path d="M119.599 32.7634H117.139V33.4948H119.599V32.7634Z" stroke="#1E1E1E" stroke-width="0.4" stroke-miterlimit="10"/>
<path d="M108.995 25.2886H127.746L127.097 26.0532H13.897L13.248 25.2886H31.6275" stroke="#1E1E1E" stroke-width="0.4" stroke-miterlimit="10"/>
<path d="M126.111 27.4495H14.8837L14.2461 26.0525H126.749L126.111 27.4495Z" stroke="#1E1E1E" stroke-width="0.4" stroke-miterlimit="10"/>
<path d="M126.999 57.3039H14.2589L13.6465 56.1736H127.679L126.999 57.3039Z" stroke="#1E1E1E" stroke-width="0.4" stroke-miterlimit="10"/>
<path d="M21.4219 27.4827H19.8926V29.6769H21.4219V27.4827Z" stroke="#1E1E1E" stroke-width="0.4" stroke-miterlimit="10"/>
<path d="M25.4355 27.4827H23.9062V29.6769H25.4355V27.4827Z" stroke="#1E1E1E" stroke-width="0.4" stroke-miterlimit="10"/>
<path d="M17.4043 27.4827H15.875V29.6769H17.4043V27.4827Z" stroke="#1E1E1E" stroke-width="0.4" stroke-miterlimit="10"/>
<path d="M33.4707 27.4827H31.9414V29.6769H33.4707V27.4827Z" stroke="#1E1E1E" stroke-width="0.4" stroke-miterlimit="10"/>
<path d="M37.4863 27.4827H35.957V29.6769H37.4863V27.4827Z" stroke="#1E1E1E" stroke-width="0.4" stroke-miterlimit="10"/>
<path d="M41.5019 27.4827H39.9727V29.6769H41.5019V27.4827Z" stroke="#1E1E1E" stroke-width="0.4" stroke-miterlimit="10"/>
<path d="M45.5195 27.4827H43.9902V29.6769H45.5195V27.4827Z" stroke="#1E1E1E" stroke-width="0.4" stroke-miterlimit="10"/>
<path d="M49.5371 27.4827H48.0078V29.6769H49.5371V27.4827Z" stroke="#1E1E1E" stroke-width="0.4" stroke-miterlimit="10"/>
<path d="M29.4531 27.4827H27.9238V29.6769H29.4531V27.4827Z" stroke="#1E1E1E" stroke-width="0.4" stroke-miterlimit="10"/>
<path d="M57.5684 27.4827H56.0391V29.6769H57.5684V27.4827Z" stroke="#1E1E1E" stroke-width="0.4" stroke-miterlimit="10"/>
<path d="M61.5859 27.4827H60.0566V29.6769H61.5859V27.4827Z" stroke="#1E1E1E" stroke-width="0.4" stroke-miterlimit="10"/>
<path d="M65.6035 27.4827H64.0742V29.6769H65.6035V27.4827Z" stroke="#1E1E1E" stroke-width="0.4" stroke-miterlimit="10"/>
<path d="M69.6191 27.4827H68.0898V29.6769H69.6191V27.4827Z" stroke="#1E1E1E" stroke-width="0.4" stroke-miterlimit="10"/>
<path d="M73.6367 27.4827H72.1074V29.6769H73.6367V27.4827Z" stroke="#1E1E1E" stroke-width="0.4" stroke-miterlimit="10"/>
<path d="M53.5527 27.4827H52.0234V29.6769H53.5527V27.4827Z" stroke="#1E1E1E" stroke-width="0.4" stroke-miterlimit="10"/>
<path d="M81.668 27.4827H80.1387V29.6769H81.668V27.4827Z" stroke="#1E1E1E" stroke-width="0.4" stroke-miterlimit="10"/>
<path d="M85.6855 27.4827H84.1562V29.6769H85.6855V27.4827Z" stroke="#1E1E1E" stroke-width="0.4" stroke-miterlimit="10"/>
<path d="M89.7012 27.4827H88.1719V29.6769H89.7012V27.4827Z" stroke="#1E1E1E" stroke-width="0.4" stroke-miterlimit="10"/>
<path d="M93.7168 27.4827H92.1875V29.6769H93.7168V27.4827Z" stroke="#1E1E1E" stroke-width="0.4" stroke-miterlimit="10"/>
<path d="M97.7344 27.4827H96.2051V29.6769H97.7344V27.4827Z" stroke="#1E1E1E" stroke-width="0.4" stroke-miterlimit="10"/>
<path d="M77.6523 27.4827H76.123V29.6769H77.6523V27.4827Z" stroke="#1E1E1E" stroke-width="0.4" stroke-miterlimit="10"/>
<path d="M105.768 27.4827H104.238V29.6769H105.768V27.4827Z" stroke="#1E1E1E" stroke-width="0.4" stroke-miterlimit="10"/>
<path d="M109.783 27.4827H108.254V29.6769H109.783V27.4827Z" stroke="#1E1E1E" stroke-width="0.4" stroke-miterlimit="10"/>
<path d="M113.803 27.4827H112.273V29.6769H113.803V27.4827Z" stroke="#1E1E1E" stroke-width="0.4" stroke-miterlimit="10"/>
<path d="M117.818 27.4827H116.289V29.6769H117.818V27.4827Z" stroke="#1E1E1E" stroke-width="0.4" stroke-miterlimit="10"/>
<path d="M121.834 27.4827H120.305V29.6769H121.834V27.4827Z" stroke="#1E1E1E" stroke-width="0.4" stroke-miterlimit="10"/>
<path d="M125.852 27.4827H124.322V29.6769H125.852V27.4827Z" stroke="#1E1E1E" stroke-width="0.4" stroke-miterlimit="10"/>
<path d="M101.752 27.4827H100.223V29.6769H101.752V27.4827Z" stroke="#1E1E1E" stroke-width="0.4" stroke-miterlimit="10"/>
<path d="M126.216 29.7102H14.7109V30.4416H126.216V29.7102Z" stroke="#1E1E1E" stroke-width="0.4" stroke-miterlimit="10"/>
<path d="M126.25 30.4749H14.7441V31.2063H126.25V30.4749Z" stroke="#1E1E1E" stroke-width="0.4" stroke-miterlimit="10"/>
<path d="M120.929 54.8438H20.3281V56.1736H120.929V54.8438Z" stroke="#1E1E1E" stroke-width="0.4" stroke-miterlimit="10"/>
<path d="M20.3307 54.877H14.2461V56.2068H20.3307V54.877Z" stroke="#1E1E1E" stroke-width="0.4" stroke-miterlimit="10"/>
<path d="M21.3951 51.2041H17.8711V51.2201H21.3951V51.2041Z" stroke="#1E1E1E" stroke-width="0.4" stroke-miterlimit="10"/>
<path d="M123.325 51.2041H119.801V51.2201H123.325V51.2041Z" stroke="#1E1E1E" stroke-width="0.4" stroke-miterlimit="10"/>
<path d="M18.1629 31.2063H14.5059V32.0042H18.1629V31.2063Z" stroke="#1E1E1E" stroke-width="0.4" stroke-miterlimit="10"/>
<path d="M17.9264 33.5002H14.7441V34.1652H17.9264V33.5002Z" stroke="#1E1E1E" stroke-width="0.4" stroke-miterlimit="10"/>
<path d="M17.9264 32.0374H14.7441V32.7023H17.9264V32.0374Z" stroke="#1E1E1E" stroke-width="0.4" stroke-miterlimit="10"/>
<path d="M17.5734 32.7356H15.1133V33.467H17.5734V32.7356Z" stroke="#1E1E1E" stroke-width="0.4" stroke-miterlimit="10"/>
<path d="M17.8355 53.4477H15.1094V34.1653H17.5695L17.8355 53.4477Z" stroke="#1E1E1E" stroke-width="0.4" stroke-miterlimit="10"/>
<path d="M18.2879 53.4521H14.6309V54.25H18.2879V53.4521Z" stroke="#1E1E1E" stroke-width="0.4" stroke-miterlimit="10"/>
<path d="M18.5875 54.25H14.332V54.8484H18.5875V54.25Z" stroke="#1E1E1E" stroke-width="0.4" stroke-miterlimit="10"/>
<path d="M122.937 32.0034H126.594V31.2055H122.937V32.0034Z" stroke="#1E1E1E" stroke-width="0.4" stroke-miterlimit="10"/>
<path d="M123.175 34.1643H126.357V33.4994H123.175V34.1643Z" stroke="#1E1E1E" stroke-width="0.4" stroke-miterlimit="10"/>
<path d="M123.175 32.7017H126.357V32.0368H123.175V32.7017Z" stroke="#1E1E1E" stroke-width="0.4" stroke-miterlimit="10"/>
<path d="M123.528 33.4663H125.988V32.7349H123.528V33.4663Z" stroke="#1E1E1E" stroke-width="0.4" stroke-miterlimit="10"/>
<path d="M123.266 53.4474H125.992V34.165H123.532L123.266 53.4474Z" stroke="#1E1E1E" stroke-width="0.4" stroke-miterlimit="10"/>
<path d="M122.812 54.2507H126.469V53.4528H122.812V54.2507Z" stroke="#1E1E1E" stroke-width="0.4" stroke-miterlimit="10"/>
<path d="M122.514 54.8491H126.77V54.2507H122.514V54.8491Z" stroke="#1E1E1E" stroke-width="0.4" stroke-miterlimit="10"/>
<path d="M33.7252 63.1884C33.7252 61.1824 32.2684 59.5181 30.3561 59.1917L30.3009 59.5647H29.0376L28.9824 59.1917C27.0694 59.5181 25.6133 61.1824 25.6133 63.1884C25.6133 63.3008 25.6193 63.4112 25.6279 63.5209H25.6133V73.561H33.7252V63.5209H33.7106C33.7192 63.4112 33.7252 63.3008 33.7252 63.1884Z" stroke="#1E1E1E" stroke-width="0.4" stroke-miterlimit="10"/>
<path d="M30.2833 59.5646H29.02L28.6875 57.304H30.6157L30.2833 59.5646Z" stroke="#1E1E1E" stroke-width="0.4" stroke-miterlimit="10"/>
<path d="M25.6133 63.4543H33.7252" stroke="#1E1E1E" stroke-width="0.4" stroke-miterlimit="10"/>
<path d="M31.6925 64.2183H27.6445V72.5968H31.6925V64.2183Z" stroke="#1E1E1E" stroke-width="0.4" stroke-miterlimit="10"/>
<path d="M29.1035 64.1711V72.5497" stroke="#1E1E1E" stroke-width="0.4" stroke-miterlimit="10"/>
<path d="M30.4219 64.2183V72.5968" stroke="#1E1E1E" stroke-width="0.4" stroke-miterlimit="10"/>
<path d="M27.6445 66.3362H31.6932" stroke="#1E1E1E" stroke-width="0.4" stroke-miterlimit="10"/>
<path d="M27.6445 68.4072H31.6932" stroke="#1E1E1E" stroke-width="0.4" stroke-miterlimit="10"/>
<path d="M27.6445 70.4785H31.6932" stroke="#1E1E1E" stroke-width="0.4" stroke-miterlimit="10"/>
<path d="M47.2252 63.1884C47.2252 61.1824 45.7684 59.5181 43.8561 59.1917L43.8009 59.5647H42.5376L42.4824 59.1917C40.5694 59.5181 39.1133 61.1824 39.1133 63.1884C39.1133 63.3008 39.1193 63.4112 39.1279 63.5209H39.1133V73.561H47.2252V63.5209H47.2106C47.2192 63.4112 47.2252 63.3008 47.2252 63.1884Z" stroke="#1E1E1E" stroke-width="0.4" stroke-miterlimit="10"/>
<path d="M43.7833 59.5646H42.52L42.1875 57.304H44.1157L43.7833 59.5646Z" stroke="#1E1E1E" stroke-width="0.4" stroke-miterlimit="10"/>
<path d="M39.1133 63.4543H47.2252" stroke="#1E1E1E" stroke-width="0.4" stroke-miterlimit="10"/>
<path d="M45.1925 64.2183H41.1445V72.5968H45.1925V64.2183Z" stroke="#1E1E1E" stroke-width="0.4" stroke-miterlimit="10"/>
<path d="M42.6035 64.1711V72.5497" stroke="#1E1E1E" stroke-width="0.4" stroke-miterlimit="10"/>
<path d="M43.9219 64.2183V72.5968" stroke="#1E1E1E" stroke-width="0.4" stroke-miterlimit="10"/>
<path d="M41.1445 66.3362H45.1932" stroke="#1E1E1E" stroke-width="0.4" stroke-miterlimit="10"/>
<path d="M41.1445 68.4072H45.1932" stroke="#1E1E1E" stroke-width="0.4" stroke-miterlimit="10"/>
<path d="M41.1445 70.4785H45.1932" stroke="#1E1E1E" stroke-width="0.4" stroke-miterlimit="10"/>
<path d="M61.2525 63.1884C61.2525 61.1824 59.7957 59.5181 57.8834 59.1917L57.8282 59.5647H56.5649L56.5097 59.1917C54.5968 59.5181 53.1406 61.1824 53.1406 63.1884C53.1406 63.3008 53.1466 63.4112 53.1553 63.5209H53.1406V73.561H61.2525V63.5209H61.2379C61.2465 63.4112 61.2525 63.3008 61.2525 63.1884Z" stroke="#1E1E1E" stroke-width="0.4" stroke-miterlimit="10"/>
<path d="M57.8106 59.5646H56.5473L56.2148 57.304H58.1431L57.8106 59.5646Z" stroke="#1E1E1E" stroke-width="0.4" stroke-miterlimit="10"/>
<path d="M53.1406 63.4543H61.2525" stroke="#1E1E1E" stroke-width="0.4" stroke-miterlimit="10"/>
<path d="M59.2198 64.2183H55.1719V72.5968H59.2198V64.2183Z" stroke="#1E1E1E" stroke-width="0.4" stroke-miterlimit="10"/>
<path d="M56.6309 64.1711V72.5497" stroke="#1E1E1E" stroke-width="0.4" stroke-miterlimit="10"/>
<path d="M57.9492 64.2183V72.5968" stroke="#1E1E1E" stroke-width="0.4" stroke-miterlimit="10"/>
<path d="M55.1719 66.3362H59.2205" stroke="#1E1E1E" stroke-width="0.4" stroke-miterlimit="10"/>
<path d="M55.1719 68.4072H59.2205" stroke="#1E1E1E" stroke-width="0.4" stroke-miterlimit="10"/>
<path d="M55.1719 70.4785H59.2205" stroke="#1E1E1E" stroke-width="0.4" stroke-miterlimit="10"/>
<path d="M74.8853 63.1884C74.8853 61.1824 73.4285 59.5181 71.5162 59.1917L71.4611 59.5647H70.1977L70.1425 59.1917C68.2296 59.5181 66.7734 61.1824 66.7734 63.1884C66.7734 63.3008 66.7794 63.4112 66.7881 63.5209H66.7734V73.561H74.8853V63.5209H74.8707C74.8794 63.4112 74.8853 63.3008 74.8853 63.1884Z" stroke="#1E1E1E" stroke-width="0.4" stroke-miterlimit="10"/>
<path d="M71.4434 59.5646H70.1801L69.8477 57.304H71.7759L71.4434 59.5646Z" stroke="#1E1E1E" stroke-width="0.4" stroke-miterlimit="10"/>
<path d="M66.7734 63.4543H74.8853" stroke="#1E1E1E" stroke-width="0.4" stroke-miterlimit="10"/>
<path d="M72.8527 64.2183H68.8047V72.5968H72.8527V64.2183Z" stroke="#1E1E1E" stroke-width="0.4" stroke-miterlimit="10"/>
<path d="M70.2656 64.1711V72.5497" stroke="#1E1E1E" stroke-width="0.4" stroke-miterlimit="10"/>
<path d="M71.582 64.2183V72.5968" stroke="#1E1E1E" stroke-width="0.4" stroke-miterlimit="10"/>
<path d="M68.8047 66.3362H72.8533" stroke="#1E1E1E" stroke-width="0.4" stroke-miterlimit="10"/>
<path d="M68.8047 68.4072H72.8533" stroke="#1E1E1E" stroke-width="0.4" stroke-miterlimit="10"/>
<path d="M68.8047 70.4785H72.8533" stroke="#1E1E1E" stroke-width="0.4" stroke-miterlimit="10"/>
<path d="M88.1822 63.1884C88.1822 61.1824 86.7254 59.5181 84.8131 59.1917L84.7579 59.5647H83.4946L83.4394 59.1917C81.5265 59.5181 80.0703 61.1824 80.0703 63.1884C80.0703 63.3008 80.0763 63.4112 80.0849 63.5209H80.0703V73.561H88.1822V63.5209H88.1676C88.1762 63.4112 88.1822 63.3008 88.1822 63.1884Z" stroke="#1E1E1E" stroke-width="0.4" stroke-miterlimit="10"/>
<path d="M84.7384 59.5646H83.475L83.1426 57.304H85.0708L84.7384 59.5646Z" stroke="#1E1E1E" stroke-width="0.4" stroke-miterlimit="10"/>
<path d="M80.0703 63.4543H88.1822" stroke="#1E1E1E" stroke-width="0.4" stroke-miterlimit="10"/>
<path d="M86.1495 64.2183H82.1016V72.5968H86.1495V64.2183Z" stroke="#1E1E1E" stroke-width="0.4" stroke-miterlimit="10"/>
<path d="M83.5605 64.1711V72.5497" stroke="#1E1E1E" stroke-width="0.4" stroke-miterlimit="10"/>
<path d="M84.8789 64.2183V72.5968" stroke="#1E1E1E" stroke-width="0.4" stroke-miterlimit="10"/>
<path d="M82.1016 66.3362H86.1502" stroke="#1E1E1E" stroke-width="0.4" stroke-miterlimit="10"/>
<path d="M82.1016 68.4072H86.1502" stroke="#1E1E1E" stroke-width="0.4" stroke-miterlimit="10"/>
<path d="M82.1016 70.4785H86.1502" stroke="#1E1E1E" stroke-width="0.4" stroke-miterlimit="10"/>
<path d="M101.747 63.1884C101.747 61.1824 100.29 59.5181 98.3776 59.1917L98.3224 59.5647H97.0591L97.0039 59.1917C95.0909 59.5181 93.6348 61.1824 93.6348 63.1884C93.6348 63.3008 93.6408 63.4112 93.6494 63.5209H93.6348V73.561H101.747V63.5209H101.732C101.741 63.4112 101.747 63.3008 101.747 63.1884Z" stroke="#1E1E1E" stroke-width="0.4" stroke-miterlimit="10"/>
<path d="M98.3048 59.5646H97.0414L96.709 57.304H98.6372L98.3048 59.5646Z" stroke="#1E1E1E" stroke-width="0.4" stroke-miterlimit="10"/>
<path d="M93.6348 63.4543H101.747" stroke="#1E1E1E" stroke-width="0.4" stroke-miterlimit="10"/>
<path d="M99.7159 64.2183H95.668V72.5968H99.7159V64.2183Z" stroke="#1E1E1E" stroke-width="0.4" stroke-miterlimit="10"/>
<path d="M97.127 64.1711V72.5497" stroke="#1E1E1E" stroke-width="0.4" stroke-miterlimit="10"/>
<path d="M98.4453 64.2183V72.5968" stroke="#1E1E1E" stroke-width="0.4" stroke-miterlimit="10"/>
<path d="M95.668 66.3362H99.7166" stroke="#1E1E1E" stroke-width="0.4" stroke-miterlimit="10"/>
<path d="M95.668 68.4072H99.7166" stroke="#1E1E1E" stroke-width="0.4" stroke-miterlimit="10"/>
<path d="M95.668 70.4785H99.7166" stroke="#1E1E1E" stroke-width="0.4" stroke-miterlimit="10"/>
<path d="M115.776 63.1884C115.776 61.1824 114.319 59.5181 112.407 59.1917L112.352 59.5647H111.088L111.033 59.1917C109.12 59.5181 107.664 61.1824 107.664 63.1884C107.664 63.3008 107.67 63.4112 107.679 63.5209H107.664V73.561H115.776V63.5209H115.761C115.77 63.4112 115.776 63.3008 115.776 63.1884Z" stroke="#1E1E1E" stroke-width="0.4" stroke-miterlimit="10"/>
<path d="M112.334 59.5646H111.071L110.738 57.304H112.667L112.334 59.5646Z" stroke="#1E1E1E" stroke-width="0.4" stroke-miterlimit="10"/>
<path d="M107.664 63.4543H115.776" stroke="#1E1E1E" stroke-width="0.4" stroke-miterlimit="10"/>
<path d="M113.743 64.2183H109.695V72.5968H113.743V64.2183Z" stroke="#1E1E1E" stroke-width="0.4" stroke-miterlimit="10"/>
<path d="M111.154 64.1711V72.5497" stroke="#1E1E1E" stroke-width="0.4" stroke-miterlimit="10"/>
<path d="M112.473 64.2183V72.5968" stroke="#1E1E1E" stroke-width="0.4" stroke-miterlimit="10"/>
<path d="M109.695 66.3359H113.744" stroke="#1E1E1E" stroke-width="0.4" stroke-miterlimit="10"/>
<path d="M109.695 68.4072H113.744" stroke="#1E1E1E" stroke-width="0.4" stroke-miterlimit="10"/>
<path d="M109.695 70.4785H113.744" stroke="#1E1E1E" stroke-width="0.4" stroke-miterlimit="10"/>
<path d="M127.139 54.8237H120.932V56.1536H127.139V54.8237Z" stroke="#1E1E1E" stroke-width="0.4" stroke-miterlimit="10"/>
<path d="M70.4551 12.0687V12.0574L70.4385 12.0627L70.4219 12.0574V12.0687L31.873 25.2884L32.4415 26.0863H70.4219H70.4551H108.435L109.004 25.2884L70.4551 12.0687Z" stroke="#1E1E1E" stroke-width="0.4" stroke-miterlimit="10"/>
<path d="M70.4961 26.0865H32.4826L31.9141 25.2886" stroke="#1E1E1E" stroke-width="0.4" stroke-miterlimit="10"/>
<path d="M28.7349 17.2883L24.3398 18.9307" stroke="#1E1E1E" stroke-width="0.4" stroke-miterlimit="10"/>
<path d="M68.5699 12.6553H41.1344L30.6016 16.5915" stroke="#1E1E1E" stroke-width="0.4" stroke-miterlimit="10"/>
<path d="M112.219 17.376L116.873 19.138" stroke="#1E1E1E" stroke-width="0.4" stroke-miterlimit="10"/>
<path d="M72.0938 12.6553H99.5293L110.293 16.7112" stroke="#1E1E1E" stroke-width="0.4" stroke-miterlimit="10"/>
<path d="M37.5837 23.3601H14.8105V25.2883H31.932" stroke="#1E1E1E" stroke-width="0.4" stroke-miterlimit="10"/>
<path d="M21.9462 22.4287H24.3398V19.1042H21.9462V22.4287Z" stroke="#1E1E1E" stroke-width="0.4" stroke-miterlimit="10"/>
<path d="M28.7177 22.4287H31.1113V19.1042H28.7177V22.4287Z" stroke="#1E1E1E" stroke-width="0.4" stroke-miterlimit="10"/>
<path d="M15.3411 22.4287H17.4023V19.1042H15.3411V22.4287Z" stroke="#1E1E1E" stroke-width="0.4" stroke-miterlimit="10"/>
<path d="M15.1094 23.3603V22.4294H40.1432" stroke="#1E1E1E" stroke-width="0.4" stroke-miterlimit="10"/>
<path d="M126.098 22.9864V22.083H99.7173" stroke="#1E1E1E" stroke-width="0.4" stroke-miterlimit="10"/>
<path d="M15.3418 19.0715H50.1498" stroke="#1E1E1E" stroke-width="0.4" stroke-miterlimit="10"/>
<path d="M103.645 23.3601H126.418V25.2883H109.296" stroke="#1E1E1E" stroke-width="0.4" stroke-miterlimit="10"/>
<path d="M119.28 19.1047H116.887V22.0968H119.28V19.1047Z" stroke="#1E1E1E" stroke-width="0.4" stroke-miterlimit="10"/>
<path d="M112.509 19.1047H110.115V22.0968H112.509V19.1047Z" stroke="#1E1E1E" stroke-width="0.4" stroke-miterlimit="10"/>
<path d="M125.885 19.1047H123.824V22.0968H125.885V19.1047Z" stroke="#1E1E1E" stroke-width="0.4" stroke-miterlimit="10"/>
<path d="M126.117 22.4294V23.3603" stroke="#1E1E1E" stroke-width="0.4" stroke-miterlimit="10"/>
<path d="M125.884 19.0715H91.0762" stroke="#1E1E1E" stroke-width="0.4" stroke-miterlimit="10"/>
<path d="M70.4952 13.3867L33.957 26.0865" stroke="#1E1E1E" stroke-width="0.4" stroke-miterlimit="10"/>
<path d="M70.5293 13.3867L107.067 26.0865" stroke="#1E1E1E" stroke-width="0.4" stroke-miterlimit="10"/>
<path d="M20.33 57.2705H14.2793V63.4542H20.33V57.2705Z" stroke="#1E1E1E" stroke-width="0.4" stroke-miterlimit="10"/>
<path d="M20.33 64.6511H14.2793V73.5609H20.33V64.6511Z" stroke="#1E1E1E" stroke-width="0.4" stroke-miterlimit="10"/>
<path d="M126.982 64.6511H120.932V73.5609H126.982V64.6511Z" stroke="#1E1E1E" stroke-width="0.4" stroke-miterlimit="10"/>
<path d="M25.6149 64.6512H14.2835L13.6133 63.4543H25.6149V64.6512Z" stroke="#1E1E1E" stroke-width="0.4" stroke-miterlimit="10"/>
<path d="M115.777 64.6512H126.987L127.712 63.4543H115.777V64.6512Z" stroke="#1E1E1E" stroke-width="0.4" stroke-miterlimit="10"/>
<path d="M70.6009 23.327C72.1517 23.327 73.4088 22.0699 73.4088 20.5191C73.4088 18.9683 72.1517 17.7112 70.6009 17.7112C69.0501 17.7112 67.793 18.9683 67.793 20.5191C67.793 22.0699 69.0501 23.327 70.6009 23.327Z" stroke="#1E1E1E" stroke-width="0.4" stroke-miterlimit="10"/>
<path d="M70.6011 22.5869C71.7431 22.5869 72.6689 21.6611 72.6689 20.519C72.6689 19.377 71.7431 18.4512 70.6011 18.4512C69.459 18.4512 68.5332 19.377 68.5332 20.519C68.5332 21.6611 69.459 22.5869 70.6011 22.5869Z" stroke="#1E1E1E" stroke-width="0.4" stroke-miterlimit="10"/>
<path d="M70.6017 21.6169C71.208 21.6169 71.6994 21.1254 71.6994 20.5192C71.6994 19.9129 71.208 19.4214 70.6017 19.4214C69.9954 19.4214 69.5039 19.9129 69.5039 20.5192C69.5039 21.1254 69.9954 21.6169 70.6017 21.6169Z" stroke="#1E1E1E" stroke-width="0.4" stroke-miterlimit="10"/>
<path d="M70.5938 18.4492V22.6355" stroke="#1E1E1E" stroke-width="0.4" stroke-miterlimit="10"/>
<path d="M68.6992 19.6128L69.5164 20.1234" stroke="#1E1E1E" stroke-width="0.4" stroke-miterlimit="10"/>
<path d="M69.7195 21.2466L68.9023 21.6548" stroke="#1E1E1E" stroke-width="0.4" stroke-miterlimit="10"/>
<path d="M72.4767 19.6128L71.6602 20.1234" stroke="#1E1E1E" stroke-width="0.4" stroke-miterlimit="10"/>
<path d="M71.457 21.2466L72.2735 21.6548" stroke="#1E1E1E" stroke-width="0.4" stroke-miterlimit="10"/>
<path d="M53.111 63.4543H47.2598V64.6512H53.111V63.4543Z" stroke="#1E1E1E" stroke-width="0.4" stroke-miterlimit="10"/>
<path d="M39.081 63.4543H33.7617V64.6512H39.081V63.4543Z" stroke="#1E1E1E" stroke-width="0.4" stroke-miterlimit="10"/>
<path d="M66.7394 63.4543H61.2871V64.6512H66.7394V63.4543Z" stroke="#1E1E1E" stroke-width="0.4" stroke-miterlimit="10"/>
<path d="M80.0378 63.4543H74.918V64.6512H80.0378V63.4543Z" stroke="#1E1E1E" stroke-width="0.4" stroke-miterlimit="10"/>
<path d="M93.6691 63.4543H88.1504V64.6512H93.6691V63.4543Z" stroke="#1E1E1E" stroke-width="0.4" stroke-miterlimit="10"/>
<path d="M107.632 63.4543H101.781V64.6512H107.632V63.4543Z" stroke="#1E1E1E" stroke-width="0.4" stroke-miterlimit="10"/>
<path d="M126.982 57.3372H120.932V63.4543H126.982V57.3372Z" stroke="#1E1E1E" stroke-width="0.4" stroke-miterlimit="10"/>
<path d="M141.999 73.561H0.373047V75.0238H141.999V73.561Z" stroke="#1E1E1E" stroke-width="0.4" stroke-miterlimit="10"/>
<path d="M52.6113 39.9243H61.3609" stroke="#1E1E1E" stroke-width="0.4" stroke-miterlimit="10"/>
<path d="M52.377 39.6306C52.377 39.6306 54.0213 37.8193 56.9868 37.8193H57.016C59.9815 37.8193 61.6258 39.6306 61.6258 39.6306" stroke="#1E1E1E" stroke-width="0.4" stroke-miterlimit="10"/>
<path d="M53.9173 40.6145H53.3887V52.1381H53.9173V40.6145Z" stroke="#1E1E1E" stroke-width="0.4" stroke-miterlimit="10"/>
<path d="M60.6126 40.6145H60.084V52.1381H60.6126V40.6145Z" stroke="#1E1E1E" stroke-width="0.4" stroke-miterlimit="10"/>
<path d="M60.9077 53.946H53.0977V54.8437H60.9077V53.946Z" stroke="#1E1E1E" stroke-width="0.4" stroke-miterlimit="10"/>
<path d="M54.6994 52.1506H53.4102V53.9459H54.6994V52.1506Z" stroke="#1E1E1E" stroke-width="0.4" stroke-miterlimit="10"/>
<path d="M60.6193 52.1506H59.3301V53.9459H60.6193V52.1506Z" stroke="#1E1E1E" stroke-width="0.4" stroke-miterlimit="10"/>
<path d="M58.6601 52.1506H57.6328V53.9459H58.6601V52.1506Z" stroke="#1E1E1E" stroke-width="0.4" stroke-miterlimit="10"/>
<path d="M56.6679 52.1506H55.6406V53.9459H56.6679V52.1506Z" stroke="#1E1E1E" stroke-width="0.4" stroke-miterlimit="10"/>
<path d="M59.4592 41.9775H54.5469V52.1447H59.4592V41.9775Z" stroke="#1E1E1E" stroke-width="0.4" stroke-miterlimit="10"/>
<path d="M56.3164 41.9204V52.0875" stroke="#1E1E1E" stroke-width="0.4" stroke-miterlimit="10"/>
<path d="M57.916 41.9775V52.1447" stroke="#1E1E1E" stroke-width="0.4" stroke-miterlimit="10"/>
<path d="M54.5469 44.5481H59.4592" stroke="#1E1E1E" stroke-width="0.4" stroke-miterlimit="10"/>
<path d="M54.5469 47.0615H59.4592" stroke="#1E1E1E" stroke-width="0.4" stroke-miterlimit="10"/>
<path d="M54.5469 49.575H59.4592" stroke="#1E1E1E" stroke-width="0.4" stroke-miterlimit="10"/>
<path d="M53.918 40.6145H60.0837" stroke="#1E1E1E" stroke-width="0.4" stroke-miterlimit="10"/>
<path d="M53.9297 41.3452H60.0954" stroke="#1E1E1E" stroke-width="0.4" stroke-miterlimit="10"/>
<path d="M65.9902 39.9538V39.66L70.5701 37.7224L75.1607 39.66V39.9538" stroke="#1E1E1E" stroke-width="0.4" stroke-miterlimit="10"/>
<path d="M66.1992 39.9246H74.9488" stroke="#1E1E1E" stroke-width="0.4" stroke-miterlimit="10"/>
<path d="M67.4895 40.6294H66.9609V52.1529H67.4895V40.6294Z" stroke="#1E1E1E" stroke-width="0.4" stroke-miterlimit="10"/>
<path d="M74.1849 40.6294H73.6562V52.1529H74.1849V40.6294Z" stroke="#1E1E1E" stroke-width="0.4" stroke-miterlimit="10"/>
<path d="M74.48 53.9609H66.6699V54.8586H74.48V53.9609Z" stroke="#1E1E1E" stroke-width="0.4" stroke-miterlimit="10"/>
<path d="M68.2697 52.1655H66.9805V53.9608H68.2697V52.1655Z" stroke="#1E1E1E" stroke-width="0.4" stroke-miterlimit="10"/>
<path d="M74.1897 52.1655H72.9004V53.9608H74.1897V52.1655Z" stroke="#1E1E1E" stroke-width="0.4" stroke-miterlimit="10"/>
<path d="M72.2304 52.1655H71.2031V53.9608H72.2304V52.1655Z" stroke="#1E1E1E" stroke-width="0.4" stroke-miterlimit="10"/>
<path d="M70.2363 52.1655H69.209V53.9608H70.2363V52.1655Z" stroke="#1E1E1E" stroke-width="0.4" stroke-miterlimit="10"/>
<path d="M73.0295 41.9929H68.1172V52.1601H73.0295V41.9929Z" stroke="#1E1E1E" stroke-width="0.4" stroke-miterlimit="10"/>
<path d="M69.8867 41.9358V52.1023" stroke="#1E1E1E" stroke-width="0.4" stroke-miterlimit="10"/>
<path d="M71.4863 41.9929V52.1594" stroke="#1E1E1E" stroke-width="0.4" stroke-miterlimit="10"/>
<path d="M68.1172 44.5627H73.0295" stroke="#1E1E1E" stroke-width="0.4" stroke-miterlimit="10"/>
<path d="M68.1172 47.0762H73.0295" stroke="#1E1E1E" stroke-width="0.4" stroke-miterlimit="10"/>
<path d="M68.1172 49.5896H73.0295" stroke="#1E1E1E" stroke-width="0.4" stroke-miterlimit="10"/>
<path d="M67.4902 40.6294H73.6559" stroke="#1E1E1E" stroke-width="0.4" stroke-miterlimit="10"/>
<path d="M67.5039 41.3601H73.6696" stroke="#1E1E1E" stroke-width="0.4" stroke-miterlimit="10"/>
<path d="M38.5977 39.9538V39.66L43.1776 37.7224L47.7681 39.66V39.9538" stroke="#1E1E1E" stroke-width="0.4" stroke-miterlimit="10"/>
<path d="M38.8086 39.9246H47.5581" stroke="#1E1E1E" stroke-width="0.4" stroke-miterlimit="10"/>
<path d="M40.097 40.6294H39.5684V52.1529H40.097V40.6294Z" stroke="#1E1E1E" stroke-width="0.4" stroke-miterlimit="10"/>
<path d="M46.7923 40.6294H46.2637V52.1529H46.7923V40.6294Z" stroke="#1E1E1E" stroke-width="0.4" stroke-miterlimit="10"/>
<path d="M47.0874 53.9609H39.2773V54.8586H47.0874V53.9609Z" stroke="#1E1E1E" stroke-width="0.4" stroke-miterlimit="10"/>
<path d="M40.8772 52.1655H39.5879V53.9608H40.8772V52.1655Z" stroke="#1E1E1E" stroke-width="0.4" stroke-miterlimit="10"/>
<path d="M46.7971 52.1655H45.5078V53.9608H46.7971V52.1655Z" stroke="#1E1E1E" stroke-width="0.4" stroke-miterlimit="10"/>
<path d="M44.8359 52.1655H43.8086V53.9608H44.8359V52.1655Z" stroke="#1E1E1E" stroke-width="0.4" stroke-miterlimit="10"/>
<path d="M42.8437 52.1655H41.8164V53.9608H42.8437V52.1655Z" stroke="#1E1E1E" stroke-width="0.4" stroke-miterlimit="10"/>
<path d="M45.6389 41.9929H40.7266V52.1601H45.6389V41.9929Z" stroke="#1E1E1E" stroke-width="0.4" stroke-miterlimit="10"/>
<path d="M42.4961 41.9358V52.1023" stroke="#1E1E1E" stroke-width="0.4" stroke-miterlimit="10"/>
<path d="M44.0957 41.9929V52.1594" stroke="#1E1E1E" stroke-width="0.4" stroke-miterlimit="10"/>
<path d="M40.7266 44.5627H45.6389" stroke="#1E1E1E" stroke-width="0.4" stroke-miterlimit="10"/>
<path d="M40.7266 47.0762H45.6389" stroke="#1E1E1E" stroke-width="0.4" stroke-miterlimit="10"/>
<path d="M40.7266 49.5896H45.6389" stroke="#1E1E1E" stroke-width="0.4" stroke-miterlimit="10"/>
<path d="M40.0977 40.6294H46.2634" stroke="#1E1E1E" stroke-width="0.4" stroke-miterlimit="10"/>
<path d="M40.1094 41.3601H46.2751" stroke="#1E1E1E" stroke-width="0.4" stroke-miterlimit="10"/>
<path d="M79.873 39.9243H88.6226" stroke="#1E1E1E" stroke-width="0.4" stroke-miterlimit="10"/>
<path d="M79.6387 39.6306C79.6387 39.6306 81.283 37.8193 84.2485 37.8193H84.2778C87.2432 37.8193 88.8876 39.6306 88.8876 39.6306" stroke="#1E1E1E" stroke-width="0.4" stroke-miterlimit="10"/>
<path d="M81.1809 40.6147H80.6523V52.1383H81.1809V40.6147Z" stroke="#1E1E1E" stroke-width="0.4" stroke-miterlimit="10"/>
<path d="M87.8743 40.6147H87.3457V52.1383H87.8743V40.6147Z" stroke="#1E1E1E" stroke-width="0.4" stroke-miterlimit="10"/>
<path d="M88.1694 53.9463H80.3594V54.8439H88.1694V53.9463Z" stroke="#1E1E1E" stroke-width="0.4" stroke-miterlimit="10"/>
<path d="M81.9611 52.1509H80.6719V53.9461H81.9611V52.1509Z" stroke="#1E1E1E" stroke-width="0.4" stroke-miterlimit="10"/>
<path d="M87.8811 52.1509H86.5918V53.9461H87.8811V52.1509Z" stroke="#1E1E1E" stroke-width="0.4" stroke-miterlimit="10"/>
<path d="M85.9199 52.1509H84.8926V53.9461H85.9199V52.1509Z" stroke="#1E1E1E" stroke-width="0.4" stroke-miterlimit="10"/>
<path d="M83.9277 52.1509H82.9004V53.9461H83.9277V52.1509Z" stroke="#1E1E1E" stroke-width="0.4" stroke-miterlimit="10"/>
<path d="M86.7209 41.9778H81.8086V52.1449H86.7209V41.9778Z" stroke="#1E1E1E" stroke-width="0.4" stroke-miterlimit="10"/>
<path d="M83.5781 41.9207V52.0878" stroke="#1E1E1E" stroke-width="0.4" stroke-miterlimit="10"/>
<path d="M85.1777 41.9778V52.1449" stroke="#1E1E1E" stroke-width="0.4" stroke-miterlimit="10"/>
<path d="M81.8086 44.5483H86.7209" stroke="#1E1E1E" stroke-width="0.4" stroke-miterlimit="10"/>
<path d="M81.8086 47.0618H86.7209" stroke="#1E1E1E" stroke-width="0.4" stroke-miterlimit="10"/>
<path d="M81.8086 49.5752H86.7209" stroke="#1E1E1E" stroke-width="0.4" stroke-miterlimit="10"/>
<path d="M81.1797 40.6147H87.3454" stroke="#1E1E1E" stroke-width="0.4" stroke-miterlimit="10"/>
<path d="M81.1914 41.3455H87.3571" stroke="#1E1E1E" stroke-width="0.4" stroke-miterlimit="10"/>
<path d="M107.068 39.9243H115.818" stroke="#1E1E1E" stroke-width="0.4" stroke-miterlimit="10"/>
<path d="M106.834 39.6306C106.834 39.6306 108.478 37.8193 111.444 37.8193H111.473C114.439 37.8193 116.083 39.6306 116.083 39.6306" stroke="#1E1E1E" stroke-width="0.4" stroke-miterlimit="10"/>
<path d="M108.372 40.6145H107.844V52.1381H108.372V40.6145Z" stroke="#1E1E1E" stroke-width="0.4" stroke-miterlimit="10"/>
<path d="M115.068 40.6145H114.539V52.1381H115.068V40.6145Z" stroke="#1E1E1E" stroke-width="0.4" stroke-miterlimit="10"/>
<path d="M115.363 53.946H107.553V54.8437H115.363V53.946Z" stroke="#1E1E1E" stroke-width="0.4" stroke-miterlimit="10"/>
<path d="M109.154 52.1506H107.865V53.9459H109.154V52.1506Z" stroke="#1E1E1E" stroke-width="0.4" stroke-miterlimit="10"/>
<path d="M115.074 52.1506H113.785V53.9459H115.074V52.1506Z" stroke="#1E1E1E" stroke-width="0.4" stroke-miterlimit="10"/>
<path d="M113.113 52.1506H112.086V53.9459H113.113V52.1506Z" stroke="#1E1E1E" stroke-width="0.4" stroke-miterlimit="10"/>
<path d="M111.121 52.1506H110.094V53.9459H111.121V52.1506Z" stroke="#1E1E1E" stroke-width="0.4" stroke-miterlimit="10"/>
<path d="M113.914 41.9775H109.002V52.1447H113.914V41.9775Z" stroke="#1E1E1E" stroke-width="0.4" stroke-miterlimit="10"/>
<path d="M110.773 41.9204V52.0875" stroke="#1E1E1E" stroke-width="0.4" stroke-miterlimit="10"/>
<path d="M112.371 41.9775V52.1447" stroke="#1E1E1E" stroke-width="0.4" stroke-miterlimit="10"/>
<path d="M109.002 44.5481H113.914" stroke="#1E1E1E" stroke-width="0.4" stroke-miterlimit="10"/>
<path d="M109.002 47.0615H113.914" stroke="#1E1E1E" stroke-width="0.4" stroke-miterlimit="10"/>
<path d="M109.002 49.575H113.914" stroke="#1E1E1E" stroke-width="0.4" stroke-miterlimit="10"/>
<path d="M108.373 40.6145H114.539" stroke="#1E1E1E" stroke-width="0.4" stroke-miterlimit="10"/>
<path d="M108.387 41.3452H114.552" stroke="#1E1E1E" stroke-width="0.4" stroke-miterlimit="10"/>
<path d="M93.25 39.9538V39.66L97.8299 37.7224L102.42 39.66V39.9538" stroke="#1E1E1E" stroke-width="0.4" stroke-miterlimit="10"/>
<path d="M93.4609 39.9246H102.21" stroke="#1E1E1E" stroke-width="0.4" stroke-miterlimit="10"/>
<path d="M94.7493 40.6294H94.2207V52.1529H94.7493V40.6294Z" stroke="#1E1E1E" stroke-width="0.4" stroke-miterlimit="10"/>
<path d="M101.445 40.6294H100.916V52.1529H101.445V40.6294Z" stroke="#1E1E1E" stroke-width="0.4" stroke-miterlimit="10"/>
<path d="M101.74 53.9609H93.9297V54.8586H101.74V53.9609Z" stroke="#1E1E1E" stroke-width="0.4" stroke-miterlimit="10"/>
<path d="M95.5314 52.1655H94.2422V53.9608H95.5314V52.1655Z" stroke="#1E1E1E" stroke-width="0.4" stroke-miterlimit="10"/>
<path d="M101.451 52.1655H100.162V53.9608H101.451V52.1655Z" stroke="#1E1E1E" stroke-width="0.4" stroke-miterlimit="10"/>
<path d="M99.4902 52.1655H98.4629V53.9608H99.4902V52.1655Z" stroke="#1E1E1E" stroke-width="0.4" stroke-miterlimit="10"/>
<path d="M97.498 52.1655H96.4707V53.9608H97.498V52.1655Z" stroke="#1E1E1E" stroke-width="0.4" stroke-miterlimit="10"/>
<path d="M100.291 41.9929H95.3789V52.1601H100.291V41.9929Z" stroke="#1E1E1E" stroke-width="0.4" stroke-miterlimit="10"/>
<path d="M97.1484 41.9358V52.1023" stroke="#1E1E1E" stroke-width="0.4" stroke-miterlimit="10"/>
<path d="M98.748 41.9929V52.1594" stroke="#1E1E1E" stroke-width="0.4" stroke-miterlimit="10"/>
<path d="M95.3789 44.5627H100.291" stroke="#1E1E1E" stroke-width="0.4" stroke-miterlimit="10"/>
<path d="M95.3789 47.0762H100.291" stroke="#1E1E1E" stroke-width="0.4" stroke-miterlimit="10"/>
<path d="M95.3789 49.5896H100.291" stroke="#1E1E1E" stroke-width="0.4" stroke-miterlimit="10"/>
<path d="M94.75 40.6294H100.916" stroke="#1E1E1E" stroke-width="0.4" stroke-miterlimit="10"/>
<path d="M94.7617 41.3601H100.927" stroke="#1E1E1E" stroke-width="0.4" stroke-miterlimit="10"/>
<path d="M23.1529 17.5078C23.7356 17.5078 24.2081 16.8505 24.2081 16.0397C24.2081 15.2288 23.7356 14.5715 23.1529 14.5715C22.5701 14.5715 22.0977 15.2288 22.0977 16.0397C22.0977 16.8505 22.5701 17.5078 23.1529 17.5078Z" stroke="#1E1E1E" stroke-width="0.4" stroke-miterlimit="10"/>
<path d="M22.8964 17.7197H23.4111L23.5653 18.4066H22.7422L22.8964 17.7197Z" stroke="#1E1E1E" stroke-width="0.4" stroke-miterlimit="10"/>
<path d="M22.5341 17.7065H23.7695V17.5523H22.5341V17.7065Z" stroke="#1E1E1E" stroke-width="0.4" stroke-miterlimit="10"/>
<path d="M22.2072 18.7385H24.0742V18.4726H22.2072V18.7385Z" stroke="#1E1E1E" stroke-width="0.4" stroke-miterlimit="10"/>
<path d="M21.9334 19.0164H24.3477V18.7584H21.9334V19.0164Z" stroke="#1E1E1E" stroke-width="0.4" stroke-miterlimit="10"/>
<path d="M22.6641 14.7649V14.2117H23.6421V14.7649" stroke="#1E1E1E" stroke-width="0.4" stroke-miterlimit="10"/>
<path d="M21.8398 15.801H22.0971V16.1009H21.6855L21.8398 15.801Z" stroke="#1E1E1E" stroke-width="0.4" stroke-miterlimit="10"/>
<path d="M24.4644 15.801H24.207V16.1009H24.6186L24.4644 15.801Z" stroke="#1E1E1E" stroke-width="0.4" stroke-miterlimit="10"/>
<path d="M22.5273 14.2177C22.5273 14.2177 22.7268 13.5847 23.1603 13.5847C23.5939 13.5847 23.79 14.1964 23.79 14.1964" stroke="#1E1E1E" stroke-width="0.4" stroke-miterlimit="10"/>
<path d="M22.3594 14.1846H24.0217" stroke="#1E1E1E" stroke-width="0.4" stroke-miterlimit="10"/>
<path d="M30.1252 11.5801C30.1252 11.5801 29.7016 11.6858 29.7016 11.8447V12.8813C29.7016 12.8813 29.2249 13.0635 29.1717 13.3813C29.1185 13.6991 28.9317 14.4937 28.9317 14.4937L29.0128 14.7058L28.9596 15.2358H29.0992L29.066 15.5536C29.066 15.5536 28.7482 15.4479 28.7482 15.6593C28.7482 15.8714 28.6424 17.547 28.7482 17.7159C28.8539 17.8841 28.8014 18.4672 28.8014 18.4672L29.1724 19.1162L30.6558 19.1029C30.6558 19.1029 30.7615 18.3083 30.709 18.2026C30.6558 18.0969 30.7914 17.7697 30.7236 17.6421C30.6558 17.5144 30.709 17.0902 30.6558 17.037C30.6026 16.9838 30.4969 16.9313 30.4969 16.9313C30.4969 16.9313 30.6558 16.4013 30.6558 16.0835C30.6558 15.7657 30.6026 15.0768 30.6026 15.0768L30.7429 14.5476L30.9736 14.9705L31.1857 15.0236L31.3978 14.759C31.3978 14.759 31.3978 14.388 31.2389 14.2823C31.08 14.1766 30.8679 13.3288 30.8679 13.3288L30.2322 12.9052L30.179 12.5874C30.179 12.5874 30.5501 12.3753 30.5501 12.2696C30.5501 12.1639 30.6558 11.5807 30.1265 11.5807L30.1252 11.5801Z" stroke="#1E1E1E" stroke-width="0.4" stroke-miterlimit="10"/>
<path d="M29.3211 13.9106C29.3211 13.9106 29.5418 14.0696 29.4354 14.3874C29.3297 14.7052 29.1316 14.9173 29.0977 15.2351" stroke="#1E1E1E" stroke-width="0.4" stroke-miterlimit="10"/>
<path d="M28.791 15.5583C28.791 15.5583 29.0217 16.1893 29.2824 16.1893C29.5424 16.1893 29.9666 16.0304 30.0198 16.0836C30.073 16.1368 29.8668 16.5072 30.049 16.6661" stroke="#1E1E1E" stroke-width="0.4" stroke-miterlimit="10"/>
<path d="M29.8984 16.6653C29.9137 16.7185 30.2847 18.2544 30.5494 18.5722" stroke="#1E1E1E" stroke-width="0.4" stroke-miterlimit="10"/>
<path d="M29.6484 16.5596C29.6484 16.5596 29.8851 17.9898 29.7402 18.3342" stroke="#1E1E1E" stroke-width="0.4" stroke-miterlimit="10"/>
<path d="M30.4437 19.0498C30.4437 18.9966 30.0567 18.3583 29.7734 18.2007" stroke="#1E1E1E" stroke-width="0.4" stroke-miterlimit="10"/>
<path d="M70.1389 0.492689C70.1389 0.492689 69.8729 1.42356 70.0059 1.68953C70.1389 1.95549 70.1389 2.17092 70.1389 2.17092C70.1389 2.17092 69.341 2.55391 69.341 2.75338C69.341 2.95286 69.208 3.88373 69.208 3.88373C69.208 3.88373 68.4101 4.21618 68.4766 5.14706C68.4766 5.14706 68.809 5.34653 69.0085 5.28004C69.0085 5.28004 69.1415 5.74548 69.075 5.6125C69.075 5.6125 69.6069 5.8512 69.5737 6.26344C69.5404 6.67569 69.5404 9.53546 69.4075 9.66845C69.2745 9.80143 69.208 9.93441 69.208 10.0009C69.208 10.0674 71.6296 10.0009 71.6296 10.0009L71.8011 7.74021C71.8011 7.74021 72.0006 7.27477 72.0006 7.14179C72.0006 7.00881 71.8676 5.94495 72.2666 5.34653C72.2666 5.34653 72.4661 4.27536 72.2666 4.01339C72.0671 3.75075 71.8011 3.3518 71.8011 3.08584C71.8011 2.81987 71.3357 2.28795 70.9368 2.22146C70.9368 2.22146 70.8038 1.82251 70.9368 1.68953C71.0697 1.55655 71.2027 1.09111 71.1362 0.958126C71.0697 0.825144 71.1362 0.160234 70.1389 0.492689Z" stroke="#1E1E1E" stroke-width="0.4" stroke-miterlimit="10"/>
<path d="M70.6335 2.45093C70.6335 2.45093 70.2737 2.81995 70.3402 2.95293" stroke="#1E1E1E" stroke-width="0.4" stroke-miterlimit="10"/>
<path d="M70.9375 4.28261C70.9375 4.28261 71.0705 3.88366 71.3364 4.01664C71.6024 4.14962 71.6024 4.3491 71.6689 4.3491C71.7354 4.3491 71.8684 4.61506 72.0678 4.48208" stroke="#1E1E1E" stroke-width="0.4" stroke-miterlimit="10"/>
<path d="M69.8066 4.68164C69.8066 4.68164 70.2608 6.04138 70.6318 6.39179C71.0035 6.74286 71.2694 6.87584 71.2694 6.87584L71.6684 7.54075" stroke="#1E1E1E" stroke-width="0.4" stroke-miterlimit="10"/>
<path d="M70.936 6.92896C70.936 6.92896 70.936 9.13712 70.6035 9.40309" stroke="#1E1E1E" stroke-width="0.4" stroke-miterlimit="10"/>
<path d="M69.6719 2.88647C69.6719 2.88647 69.8049 3.82932 69.8049 3.98956C69.8049 4.1498 69.6719 4.43306 69.6719 4.43306" stroke="#1E1E1E" stroke-width="0.4" stroke-miterlimit="10"/>
<path d="M111.266 11.6133C111.266 11.6133 110.938 11.8865 110.993 12.3786C110.993 12.3786 111.15 12.4849 111.126 12.6233C111.102 12.7616 110.774 12.9803 110.774 12.9803C110.774 12.9803 110.282 13.1991 110.282 13.5821C110.282 13.965 109.954 14.4025 109.954 14.5661C109.954 14.7303 109.9 15.7144 110.063 16.0429C110.227 16.3707 110.282 16.2616 110.336 16.4259C110.391 16.5901 110.227 16.8089 110.391 16.9179C110.555 17.0269 110.719 17.0269 110.828 17.1367C110.937 17.2457 110.993 17.3009 110.883 17.4645C110.774 17.6287 110.774 19.1048 110.774 19.1048H110.938L111.102 18.2298C111.102 18.2298 111.157 18.5576 111.157 18.6673V19.0503L112.274 19.1048C112.274 19.1048 112.461 17.6772 112.274 17.4891C112.086 17.3009 112.25 17.1367 112.25 17.1367C112.25 17.1367 112.41 16.8926 112.357 16.741C112.304 16.5894 112.578 16.4259 112.469 16.2616C112.36 16.0974 112.63 16.0449 112.495 15.8527C112.359 15.6606 112.544 15.4963 112.37 15.3594C112.195 15.2224 111.977 14.6758 111.977 14.5116C111.977 14.3474 112.195 14.2383 112.25 14.1838C112.304 14.1293 112.414 13.2542 112.031 13.09L111.812 13.0355L111.703 12.8167C111.703 12.8167 111.868 12.3247 111.868 12.1605C111.868 11.9962 111.813 11.4497 111.266 11.6139V11.6133Z" stroke="#1E1E1E" stroke-width="0.4" stroke-miterlimit="10"/>
<path d="M110.773 13.3081C110.773 13.3081 111.265 14.4564 111.375 14.5661" stroke="#1E1E1E" stroke-width="0.4" stroke-miterlimit="10"/>
<path d="M111.594 14.9485C111.648 14.9485 111.922 15.3315 112.195 15.4405" stroke="#1E1E1E" stroke-width="0.4" stroke-miterlimit="10"/>
<path d="M110.445 14.5662C110.445 14.5662 110.812 14.6752 110.848 15.1952C110.883 15.7151 111.703 15.9332 111.703 15.9332C111.703 15.9332 112.195 15.9332 112.249 15.9877" stroke="#1E1E1E" stroke-width="0.4" stroke-miterlimit="10"/>
<path d="M110.719 13.6365L110.555 14.2376" stroke="#1E1E1E" stroke-width="0.4" stroke-miterlimit="10"/>
<path d="M110.938 15.8235C110.938 15.8235 110.829 16.5343 110.992 16.9718" stroke="#1E1E1E" stroke-width="0.4" stroke-miterlimit="10"/>
<path d="M111.649 16.1521C111.649 16.1521 111.375 17.1914 111.266 17.4101" stroke="#1E1E1E" stroke-width="0.4" stroke-miterlimit="10"/>
<path d="M111.758 17.136C111.758 17.136 111.867 18.5662 111.457 18.9718" stroke="#1E1E1E" stroke-width="0.4" stroke-miterlimit="10"/>
<path d="M69.2344 12.475V10.0288H71.6281V12.475" stroke="#1E1E1E" stroke-width="0.4" stroke-miterlimit="10"/>
<path d="M15.7773 75.0237V78.6474" stroke="#1E1E1E" stroke-width="0.4" stroke-miterlimit="10"/>
<path d="M14.3145 75.0237V78.6474" stroke="#1E1E1E" stroke-width="0.4" stroke-miterlimit="10"/>
<path d="M17.5078 75.0237V78.6474" stroke="#1E1E1E" stroke-width="0.4" stroke-miterlimit="10"/>
<path d="M1.81445 75.0237V78.6474" stroke="#1E1E1E" stroke-width="0.4" stroke-miterlimit="10"/>
<path d="M0.351562 75.0237V78.6474" stroke="#1E1E1E" stroke-width="0.4" stroke-miterlimit="10"/>
<path d="M3.54297 75.0237V78.6474" stroke="#1E1E1E" stroke-width="0.4" stroke-miterlimit="10"/>
<path d="M19.1328 74.9905V77.2512" stroke="#1E1E1E" stroke-width="0.4" stroke-miterlimit="10"/>
<path d="M20.1289 74.9905V77.2512" stroke="#1E1E1E" stroke-width="0.4" stroke-miterlimit="10"/>
<path d="M25.25 74.9905V77.2512" stroke="#1E1E1E" stroke-width="0.4" stroke-miterlimit="10"/>
<path d="M26.248 74.9905V77.2512" stroke="#1E1E1E" stroke-width="0.4" stroke-miterlimit="10"/>
<path d="M27.9766 74.9905V77.2512" stroke="#1E1E1E" stroke-width="0.4" stroke-miterlimit="10"/>
<path d="M28.9727 74.9905V77.2512" stroke="#1E1E1E" stroke-width="0.4" stroke-miterlimit="10"/>
<path d="M30.5684 74.9905V77.2512" stroke="#1E1E1E" stroke-width="0.4" stroke-miterlimit="10"/>
<path d="M31.5664 74.9905V77.2512" stroke="#1E1E1E" stroke-width="0.4" stroke-miterlimit="10"/>
<path d="M33.1641 74.9905V77.2512" stroke="#1E1E1E" stroke-width="0.4" stroke-miterlimit="10"/>
<path d="M34.1602 74.9905V77.2512" stroke="#1E1E1E" stroke-width="0.4" stroke-miterlimit="10"/>
<path d="M4.49609 74.9946V77.2553" stroke="#1E1E1E" stroke-width="0.4" stroke-miterlimit="10"/>
<path d="M5.49219 74.9946V77.2553" stroke="#1E1E1E" stroke-width="0.4" stroke-miterlimit="10"/>
<path d="M7.22266 74.9946V77.2553" stroke="#1E1E1E" stroke-width="0.4" stroke-miterlimit="10"/>
<path d="M8.21875 74.9946V77.2553" stroke="#1E1E1E" stroke-width="0.4" stroke-miterlimit="10"/>
<path d="M9.81445 74.9946V77.2553" stroke="#1E1E1E" stroke-width="0.4" stroke-miterlimit="10"/>
<path d="M10.8125 74.9946V77.2553" stroke="#1E1E1E" stroke-width="0.4" stroke-miterlimit="10"/>
<path d="M12.4082 74.9946V77.2553" stroke="#1E1E1E" stroke-width="0.4" stroke-miterlimit="10"/>
<path d="M13.4043 74.9946V77.2553" stroke="#1E1E1E" stroke-width="0.4" stroke-miterlimit="10"/>
<path d="M39.2129 74.9905V77.2512" stroke="#1E1E1E" stroke-width="0.4" stroke-miterlimit="10"/>
<path d="M40.2109 74.9905V77.2512" stroke="#1E1E1E" stroke-width="0.4" stroke-miterlimit="10"/>
<path d="M41.9375 74.9905V77.2512" stroke="#1E1E1E" stroke-width="0.4" stroke-miterlimit="10"/>
<path d="M42.9375 74.9905V77.2512" stroke="#1E1E1E" stroke-width="0.4" stroke-miterlimit="10"/>
<path d="M44.5312 74.9905V77.2512" stroke="#1E1E1E" stroke-width="0.4" stroke-miterlimit="10"/>
<path d="M45.5312 74.9905V77.2512" stroke="#1E1E1E" stroke-width="0.4" stroke-miterlimit="10"/>
<path d="M47.2598 74.9905V77.2512" stroke="#1E1E1E" stroke-width="0.4" stroke-miterlimit="10"/>
<path d="M48.2559 74.9905V77.2512" stroke="#1E1E1E" stroke-width="0.4" stroke-miterlimit="10"/>
<path d="M53.707 74.9905V77.2512" stroke="#1E1E1E" stroke-width="0.4" stroke-miterlimit="10"/>
<path d="M54.707 74.9905V77.2512" stroke="#1E1E1E" stroke-width="0.4" stroke-miterlimit="10"/>
<path d="M56.5 74.9905V77.2512" stroke="#1E1E1E" stroke-width="0.4" stroke-miterlimit="10"/>
<path d="M57.498 74.9905V77.2512" stroke="#1E1E1E" stroke-width="0.4" stroke-miterlimit="10"/>
<path d="M59.2266 74.9905V77.2512" stroke="#1E1E1E" stroke-width="0.4" stroke-miterlimit="10"/>
<path d="M60.2246 74.9905V77.2512" stroke="#1E1E1E" stroke-width="0.4" stroke-miterlimit="10"/>
<path d="M62.0195 74.9905V77.2512" stroke="#1E1E1E" stroke-width="0.4" stroke-miterlimit="10"/>
<path d="M63.0176 74.9905V77.2512" stroke="#1E1E1E" stroke-width="0.4" stroke-miterlimit="10"/>
<path d="M68.4688 74.9905V77.2512" stroke="#1E1E1E" stroke-width="0.4" stroke-miterlimit="10"/>
<path d="M69.4668 74.9905V77.2512" stroke="#1E1E1E" stroke-width="0.4" stroke-miterlimit="10"/>
<path d="M71.2617 74.9905V77.2512" stroke="#1E1E1E" stroke-width="0.4" stroke-miterlimit="10"/>
<path d="M72.2578 74.9905V77.2512" stroke="#1E1E1E" stroke-width="0.4" stroke-miterlimit="10"/>
<path d="M73.9883 74.9905V77.2512" stroke="#1E1E1E" stroke-width="0.4" stroke-miterlimit="10"/>
<path d="M74.9863 74.9905V77.2512" stroke="#1E1E1E" stroke-width="0.4" stroke-miterlimit="10"/>
<path d="M76.7812 74.9905V77.2512" stroke="#1E1E1E" stroke-width="0.4" stroke-miterlimit="10"/>
<path d="M77.7773 74.9905V77.2512" stroke="#1E1E1E" stroke-width="0.4" stroke-miterlimit="10"/>
<path d="M83.2969 74.9905V77.2512" stroke="#1E1E1E" stroke-width="0.4" stroke-miterlimit="10"/>
<path d="M84.293 74.9905V77.2512" stroke="#1E1E1E" stroke-width="0.4" stroke-miterlimit="10"/>
<path d="M85.957 74.9905V77.2512" stroke="#1E1E1E" stroke-width="0.4" stroke-miterlimit="10"/>
<path d="M86.9531 74.9905V77.2512" stroke="#1E1E1E" stroke-width="0.4" stroke-miterlimit="10"/>
<path d="M88.748 74.9905V77.2512" stroke="#1E1E1E" stroke-width="0.4" stroke-miterlimit="10"/>
<path d="M89.7461 74.9905V77.2512" stroke="#1E1E1E" stroke-width="0.4" stroke-miterlimit="10"/>
<path d="M91.4766 74.9905V77.2512" stroke="#1E1E1E" stroke-width="0.4" stroke-miterlimit="10"/>
<path d="M92.4727 74.9905V77.2512" stroke="#1E1E1E" stroke-width="0.4" stroke-miterlimit="10"/>
<path d="M97.9258 74.9905V77.2512" stroke="#1E1E1E" stroke-width="0.4" stroke-miterlimit="10"/>
<path d="M98.9219 74.9905V77.2512" stroke="#1E1E1E" stroke-width="0.4" stroke-miterlimit="10"/>
<path d="M100.717 74.9905V77.2512" stroke="#1E1E1E" stroke-width="0.4" stroke-miterlimit="10"/>
<path d="M101.715 74.9905V77.2512" stroke="#1E1E1E" stroke-width="0.4" stroke-miterlimit="10"/>
<path d="M103.443 74.9905V77.2512" stroke="#1E1E1E" stroke-width="0.4" stroke-miterlimit="10"/>
<path d="M104.441 74.9905V77.2512" stroke="#1E1E1E" stroke-width="0.4" stroke-miterlimit="10"/>
<path d="M106.236 74.9905V77.2512" stroke="#1E1E1E" stroke-width="0.4" stroke-miterlimit="10"/>
<path d="M107.232 74.9905V77.2512" stroke="#1E1E1E" stroke-width="0.4" stroke-miterlimit="10"/>
<path d="M112.686 74.9905V77.2512" stroke="#1E1E1E" stroke-width="0.4" stroke-miterlimit="10"/>
<path d="M113.684 74.9905V77.2512" stroke="#1E1E1E" stroke-width="0.4" stroke-miterlimit="10"/>
<path d="M115.412 74.9905V77.2512" stroke="#1E1E1E" stroke-width="0.4" stroke-miterlimit="10"/>
<path d="M116.41 74.9905V77.2512" stroke="#1E1E1E" stroke-width="0.4" stroke-miterlimit="10"/>
<path d="M118.203 74.9905V77.2512" stroke="#1E1E1E" stroke-width="0.4" stroke-miterlimit="10"/>
<path d="M119.203 74.9905V77.2512" stroke="#1E1E1E" stroke-width="0.4" stroke-miterlimit="10"/>
<path d="M120.996 74.9905V77.2512" stroke="#1E1E1E" stroke-width="0.4" stroke-miterlimit="10"/>
<path d="M121.994 74.9905V77.2512" stroke="#1E1E1E" stroke-width="0.4" stroke-miterlimit="10"/>
<path d="M128.301 74.9946V77.2553" stroke="#1E1E1E" stroke-width="0.4" stroke-miterlimit="10"/>
<path d="M129.299 74.9946V77.2553" stroke="#1E1E1E" stroke-width="0.4" stroke-miterlimit="10"/>
<path d="M131.027 74.9946V77.2553" stroke="#1E1E1E" stroke-width="0.4" stroke-miterlimit="10"/>
<path d="M132.025 74.9946V77.2553" stroke="#1E1E1E" stroke-width="0.4" stroke-miterlimit="10"/>
<path d="M133.82 74.9946V77.2553" stroke="#1E1E1E" stroke-width="0.4" stroke-miterlimit="10"/>
<path d="M134.816 74.9946V77.2553" stroke="#1E1E1E" stroke-width="0.4" stroke-miterlimit="10"/>
<path d="M136.613 74.9946V77.2553" stroke="#1E1E1E" stroke-width="0.4" stroke-miterlimit="10"/>
<path d="M137.611 74.9946V77.2553" stroke="#1E1E1E" stroke-width="0.4" stroke-miterlimit="10"/>
<path d="M21.6289 75.0237V78.6474" stroke="#1E1E1E" stroke-width="0.4" stroke-miterlimit="10"/>
<path d="M23.5566 75.0237V78.6474" stroke="#1E1E1E" stroke-width="0.4" stroke-miterlimit="10"/>
<path d="M35.6602 75.0237V78.6474" stroke="#1E1E1E" stroke-width="0.4" stroke-miterlimit="10"/>
<path d="M37.5859 75.0237V78.6474" stroke="#1E1E1E" stroke-width="0.4" stroke-miterlimit="10"/>
<path d="M50.0195 75.0237V78.6474" stroke="#1E1E1E" stroke-width="0.4" stroke-miterlimit="10"/>
<path d="M51.9492 75.0237V78.6474" stroke="#1E1E1E" stroke-width="0.4" stroke-miterlimit="10"/>
<path d="M64.7812 75.0237V78.6474" stroke="#1E1E1E" stroke-width="0.4" stroke-miterlimit="10"/>
<path d="M66.7109 75.0237V78.6474" stroke="#1E1E1E" stroke-width="0.4" stroke-miterlimit="10"/>
<path d="M79.4766 75.0237V78.6474" stroke="#1E1E1E" stroke-width="0.4" stroke-miterlimit="10"/>
<path d="M81.4043 75.0237V78.6474" stroke="#1E1E1E" stroke-width="0.4" stroke-miterlimit="10"/>
<path d="M94.2383 75.0237V78.6474" stroke="#1E1E1E" stroke-width="0.4" stroke-miterlimit="10"/>
<path d="M96.166 75.0237V78.6474" stroke="#1E1E1E" stroke-width="0.4" stroke-miterlimit="10"/>
<path d="M108.998 75.0237V78.6474" stroke="#1E1E1E" stroke-width="0.4" stroke-miterlimit="10"/>
<path d="M110.926 75.0237V78.6474" stroke="#1E1E1E" stroke-width="0.4" stroke-miterlimit="10"/>
<path d="M125.223 75.0237V78.6474" stroke="#1E1E1E" stroke-width="0.4" stroke-miterlimit="10"/>
<path d="M126.951 75.0237V78.6474" stroke="#1E1E1E" stroke-width="0.4" stroke-miterlimit="10"/>
<path d="M123.691 75.0237V78.6474" stroke="#1E1E1E" stroke-width="0.4" stroke-miterlimit="10"/>
<path d="M140.715 75.0237V78.6474" stroke="#1E1E1E" stroke-width="0.4" stroke-miterlimit="10"/>
<path d="M141.979 74.9778V78.6015" stroke="#1E1E1E" stroke-width="0.4" stroke-miterlimit="10"/>
<path d="M139.186 75.0237V78.6474" stroke="#1E1E1E" stroke-width="0.4" stroke-miterlimit="10"/>
<path d="M141.966 77.218H0.373047V78.6808H141.966V77.218Z" stroke="#1E1E1E" stroke-width="0.4" stroke-miterlimit="10"/>
<path d="M141.966 78.6848H0.373047V80.1476H141.966V78.6848Z" stroke="#1E1E1E" stroke-width="0.4" stroke-miterlimit="10"/>
<path d="M118.096 17.5854C118.679 17.5854 119.151 16.9281 119.151 16.1173C119.151 15.3065 118.679 14.6492 118.096 14.6492C117.513 14.6492 117.041 15.3065 117.041 16.1173C117.041 16.9281 117.513 17.5854 118.096 17.5854Z" stroke="#1E1E1E" stroke-width="0.4" stroke-miterlimit="10"/>
<path d="M117.839 17.7976H118.353L118.507 18.4838H117.684L117.839 17.7976Z" stroke="#1E1E1E" stroke-width="0.4" stroke-miterlimit="10"/>
<path d="M117.477 17.7844H118.713V17.6302H117.477V17.7844Z" stroke="#1E1E1E" stroke-width="0.4" stroke-miterlimit="10"/>
<path d="M117.152 18.8169H119.02V18.5509H117.152V18.8169Z" stroke="#1E1E1E" stroke-width="0.4" stroke-miterlimit="10"/>
<path d="M116.879 19.0935H119.293V18.8355H116.879V19.0935Z" stroke="#1E1E1E" stroke-width="0.4" stroke-miterlimit="10"/>
<path d="M117.605 14.8428V14.2896H118.584V14.8428" stroke="#1E1E1E" stroke-width="0.4" stroke-miterlimit="10"/>
<path d="M116.783 15.8787H117.04V16.1785H116.629L116.783 15.8787Z" stroke="#1E1E1E" stroke-width="0.4" stroke-miterlimit="10"/>
<path d="M119.408 15.8787H119.15V16.1785H119.562L119.408 15.8787Z" stroke="#1E1E1E" stroke-width="0.4" stroke-miterlimit="10"/>
<path d="M117.473 14.2949C117.473 14.2949 117.672 13.6619 118.106 13.6619C118.539 13.6619 118.735 14.2736 118.735 14.2736" stroke="#1E1E1E" stroke-width="0.4" stroke-miterlimit="10"/>
<path d="M117.303 14.2615H118.965" stroke="#1E1E1E" stroke-width="0.4" stroke-miterlimit="10"/>
<path d="M29.9297 88.6311H36.9112" stroke="#1E1E1E" stroke-width="0.4" stroke-miterlimit="10"/>
<path d="M29.9297 91.3945H36.9112" stroke="#1E1E1E" stroke-width="0.4" stroke-miterlimit="10"/>
<path d="M45.1543 88.6311H52.1359" stroke="#1E1E1E" stroke-width="0.4" stroke-miterlimit="10"/>
<path d="M45.1543 91.3945H52.1359" stroke="#1E1E1E" stroke-width="0.4" stroke-miterlimit="10"/>
<path d="M59.9824 88.6311H67.097" stroke="#1E1E1E" stroke-width="0.4" stroke-miterlimit="10"/>
<path d="M59.9824 91.3945H67.097" stroke="#1E1E1E" stroke-width="0.4" stroke-miterlimit="10"/>
<path d="M75.0098 88.6311H82.1243" stroke="#1E1E1E" stroke-width="0.4" stroke-miterlimit="10"/>
<path d="M75.0098 91.3945H82.1243" stroke="#1E1E1E" stroke-width="0.4" stroke-miterlimit="10"/>
<path d="M90.168 88.6311H97.2825" stroke="#1E1E1E" stroke-width="0.4" stroke-miterlimit="10"/>
<path d="M90.168 91.3945H97.2825" stroke="#1E1E1E" stroke-width="0.4" stroke-miterlimit="10"/>
<path d="M104.797 88.6311H112.709" stroke="#1E1E1E" stroke-width="0.4" stroke-miterlimit="10"/>
<path d="M104.797 91.3945H112.709" stroke="#1E1E1E" stroke-width="0.4" stroke-miterlimit="10"/>
<path d="M0.339844 88.6311H21.8829" stroke="#1E1E1E" stroke-width="0.4" stroke-miterlimit="10"/>
<path d="M0.339844 91.3945H21.8829" stroke="#1E1E1E" stroke-width="0.4" stroke-miterlimit="10"/>
<path d="M120.355 88.6311H141.965" stroke="#1E1E1E" stroke-width="0.4" stroke-miterlimit="10"/>
<path d="M120.355 91.3945H141.965" stroke="#1E1E1E" stroke-width="0.4" stroke-miterlimit="10"/>
<path d="M0.373047 91.4179V80.1809" stroke="#1E1E1E" stroke-width="0.4" stroke-miterlimit="10"/>
<path d="M141.998 91.4179V80.1809" stroke="#1E1E1E" stroke-width="0.4" stroke-miterlimit="10"/>
<path d="M25.1874 81.6675C25.1349 81.6901 25.0292 81.7067 25.0292 81.7067C23.2811 82.093 21.9619 83.6097 21.8868 85.4455H21.8828V91.3945H29.9282V85.4455H29.9242C29.8478 83.5858 28.4947 82.0531 26.7127 81.6921L26.6077 81.6675" stroke="#1E1E1E" stroke-width="0.4" stroke-miterlimit="10"/>
<path d="M26.5294 82.1635H25.266L24.9336 80.1475H26.8618L26.5294 82.1635Z" stroke="#1E1E1E" stroke-width="0.4" stroke-miterlimit="10"/>
<path d="M27.878 83.137H23.8301V86.9961H27.878V83.137Z" stroke="#1E1E1E" stroke-width="0.4" stroke-miterlimit="10"/>
<path d="M25.2891 83.1396V87.0074" stroke="#1E1E1E" stroke-width="0.4" stroke-miterlimit="10"/>
<path d="M22.7793 83.1396V87.0074" stroke="#1E1E1E" stroke-width="0.4" stroke-miterlimit="10"/>
<path d="M29.0801 83.1396V87.0074" stroke="#1E1E1E" stroke-width="0.4" stroke-miterlimit="10"/>
<path d="M26.6172 83.1396V87.0074" stroke="#1E1E1E" stroke-width="0.4" stroke-miterlimit="10"/>
<path d="M21.8496 86.9961H29.895" stroke="#1E1E1E" stroke-width="0.4" stroke-miterlimit="10"/>
<path d="M21.8828 85.1343H29.9282" stroke="#1E1E1E" stroke-width="0.4" stroke-miterlimit="10"/>
<path d="M22.7148 83.1396H29.0647" stroke="#1E1E1E" stroke-width="0.4" stroke-miterlimit="10"/>
<path d="M40.2616 81.6675C40.2091 81.6901 40.1034 81.7067 40.1034 81.7067C38.3553 82.093 37.0362 83.6097 36.961 85.4455H36.957V91.3945H45.0024V85.4455H44.9985C44.922 83.5858 43.5689 82.0531 41.7869 81.6921L41.6819 81.6675" stroke="#1E1E1E" stroke-width="0.4" stroke-miterlimit="10"/>
<path d="M41.6036 82.1635H40.3403L40.0078 80.1475H41.9361L41.6036 82.1635Z" stroke="#1E1E1E" stroke-width="0.4" stroke-miterlimit="10"/>
<path d="M42.9542 83.137H38.9062V86.9961H42.9542V83.137Z" stroke="#1E1E1E" stroke-width="0.4" stroke-miterlimit="10"/>
<path d="M40.3652 83.1396V87.0074" stroke="#1E1E1E" stroke-width="0.4" stroke-miterlimit="10"/>
<path d="M37.8555 83.1396V87.0074" stroke="#1E1E1E" stroke-width="0.4" stroke-miterlimit="10"/>
<path d="M44.1543 83.1396V87.0074" stroke="#1E1E1E" stroke-width="0.4" stroke-miterlimit="10"/>
<path d="M41.6953 83.1396V87.0074" stroke="#1E1E1E" stroke-width="0.4" stroke-miterlimit="10"/>
<path d="M36.9219 86.9961H44.9673" stroke="#1E1E1E" stroke-width="0.4" stroke-miterlimit="10"/>
<path d="M36.9551 85.1343H45.0005" stroke="#1E1E1E" stroke-width="0.4" stroke-miterlimit="10"/>
<path d="M37.7871 83.1396H44.137" stroke="#1E1E1E" stroke-width="0.4" stroke-miterlimit="10"/>
<path d="M55.3319 81.6677C55.2794 81.6903 55.1737 81.707 55.1737 81.707C53.4256 82.0933 52.1065 83.6099 52.0313 85.4457H52.0273V91.3947H60.0728V85.4457H60.0688C59.9923 83.586 58.6392 82.0534 56.8572 81.6923L56.7522 81.6677" stroke="#1E1E1E" stroke-width="0.4" stroke-miterlimit="10"/>
<path d="M56.6739 82.1637H55.4106L55.0781 80.1477H57.0064L56.6739 82.1637Z" stroke="#1E1E1E" stroke-width="0.4" stroke-miterlimit="10"/>
<path d="M58.0206 83.1372H53.9727V86.9963H58.0206V83.1372Z" stroke="#1E1E1E" stroke-width="0.4" stroke-miterlimit="10"/>
<path d="M55.4336 83.1399V87.0077" stroke="#1E1E1E" stroke-width="0.4" stroke-miterlimit="10"/>
<path d="M52.9238 83.1399V87.0077" stroke="#1E1E1E" stroke-width="0.4" stroke-miterlimit="10"/>
<path d="M59.2227 83.1399V87.0077" stroke="#1E1E1E" stroke-width="0.4" stroke-miterlimit="10"/>
<path d="M56.7617 83.1399V87.0077" stroke="#1E1E1E" stroke-width="0.4" stroke-miterlimit="10"/>
<path d="M51.9922 86.9963H60.0376" stroke="#1E1E1E" stroke-width="0.4" stroke-miterlimit="10"/>
<path d="M52.0254 85.1345H60.0708" stroke="#1E1E1E" stroke-width="0.4" stroke-miterlimit="10"/>
<path d="M52.8574 83.1399H59.2073" stroke="#1E1E1E" stroke-width="0.4" stroke-miterlimit="10"/>
<path d="M70.3984 81.6677C70.3458 81.6903 70.2401 81.707 70.2401 81.707C68.4921 82.0933 67.1729 83.6099 67.0977 85.4457H67.0938V91.3947H75.1392V85.4457H75.1352C75.0587 83.586 73.7056 82.0534 71.9237 81.6923L71.8186 81.6677" stroke="#1E1E1E" stroke-width="0.4" stroke-miterlimit="10"/>
<path d="M71.7403 82.1637H70.477L70.1445 80.1477H72.0728L71.7403 82.1637Z" stroke="#1E1E1E" stroke-width="0.4" stroke-miterlimit="10"/>
<path d="M73.0909 83.1372H69.043V86.9963H73.0909V83.1372Z" stroke="#1E1E1E" stroke-width="0.4" stroke-miterlimit="10"/>
<path d="M70.502 83.1399V87.0077" stroke="#1E1E1E" stroke-width="0.4" stroke-miterlimit="10"/>
<path d="M67.9922 83.1401V87.0079" stroke="#1E1E1E" stroke-width="0.4" stroke-miterlimit="10"/>
<path d="M74.291 83.1399V87.0077" stroke="#1E1E1E" stroke-width="0.4" stroke-miterlimit="10"/>
<path d="M71.832 83.1399V87.0077" stroke="#1E1E1E" stroke-width="0.4" stroke-miterlimit="10"/>
<path d="M67.0625 86.9963H75.1079" stroke="#1E1E1E" stroke-width="0.4" stroke-miterlimit="10"/>
<path d="M67.0957 85.1345H75.1411" stroke="#1E1E1E" stroke-width="0.4" stroke-miterlimit="10"/>
<path d="M67.9277 83.1399H74.2776" stroke="#1E1E1E" stroke-width="0.4" stroke-miterlimit="10"/>
<path d="M85.4726 81.6677C85.42 81.6903 85.3143 81.707 85.3143 81.707C83.5663 82.0933 82.2471 83.6099 82.172 85.4457H82.168V91.3947H90.2134V85.4457H90.2094C90.1329 83.586 88.7798 82.0534 86.9979 81.6923L86.8928 81.6677" stroke="#1E1E1E" stroke-width="0.4" stroke-miterlimit="10"/>
<path d="M86.8145 82.1637H85.5512L85.2188 80.1477H87.147L86.8145 82.1637Z" stroke="#1E1E1E" stroke-width="0.4" stroke-miterlimit="10"/>
<path d="M88.1632 83.1372H84.1152V86.9963H88.1632V83.1372Z" stroke="#1E1E1E" stroke-width="0.4" stroke-miterlimit="10"/>
<path d="M85.5742 83.1399V87.0077" stroke="#1E1E1E" stroke-width="0.4" stroke-miterlimit="10"/>
<path d="M83.0645 83.1399V87.0077" stroke="#1E1E1E" stroke-width="0.4" stroke-miterlimit="10"/>
<path d="M89.3633 83.1399V87.0077" stroke="#1E1E1E" stroke-width="0.4" stroke-miterlimit="10"/>
<path d="M86.9023 83.1399V87.0077" stroke="#1E1E1E" stroke-width="0.4" stroke-miterlimit="10"/>
<path d="M82.1348 86.9963H90.1802" stroke="#1E1E1E" stroke-width="0.4" stroke-miterlimit="10"/>
<path d="M82.168 85.1345H90.2134" stroke="#1E1E1E" stroke-width="0.4" stroke-miterlimit="10"/>
<path d="M83 83.1399H89.3499" stroke="#1E1E1E" stroke-width="0.4" stroke-miterlimit="10"/>
<path d="M100.543 81.6677C100.49 81.6903 100.385 81.707 100.385 81.707C98.6366 82.0933 97.3174 83.6099 97.2423 85.4457H97.2383V91.3947H105.284V85.4457H105.28C105.203 83.586 103.85 82.0534 102.068 81.6923L101.963 81.6677" stroke="#1E1E1E" stroke-width="0.4" stroke-miterlimit="10"/>
<path d="M101.885 82.1637H100.622L100.289 80.1477H102.217L101.885 82.1637Z" stroke="#1E1E1E" stroke-width="0.4" stroke-miterlimit="10"/>
<path d="M103.234 83.1372H99.1855V86.9963H103.234V83.1372Z" stroke="#1E1E1E" stroke-width="0.4" stroke-miterlimit="10"/>
<path d="M100.645 83.1399V87.0077" stroke="#1E1E1E" stroke-width="0.4" stroke-miterlimit="10"/>
<path d="M98.1367 83.1399V87.0077" stroke="#1E1E1E" stroke-width="0.4" stroke-miterlimit="10"/>
<path d="M104.436 83.1399V87.0077" stroke="#1E1E1E" stroke-width="0.4" stroke-miterlimit="10"/>
<path d="M101.975 83.1399V87.0077" stroke="#1E1E1E" stroke-width="0.4" stroke-miterlimit="10"/>
<path d="M97.207 86.9963H105.252" stroke="#1E1E1E" stroke-width="0.4" stroke-miterlimit="10"/>
<path d="M97.2402 85.1345H105.286" stroke="#1E1E1E" stroke-width="0.4" stroke-miterlimit="10"/>
<path d="M98.0723 83.1399H104.422" stroke="#1E1E1E" stroke-width="0.4" stroke-miterlimit="10"/>
<path d="M115.615 81.6677C115.563 81.6903 115.457 81.707 115.457 81.707C113.709 82.0933 112.39 83.6099 112.315 85.4457H112.311V91.3947H120.356V85.4457H120.352C120.276 83.586 118.922 82.0534 117.14 81.6923L117.035 81.6677" stroke="#1E1E1E" stroke-width="0.4" stroke-miterlimit="10"/>
<path d="M116.957 82.1637H115.694L115.361 80.1477H117.29L116.957 82.1637Z" stroke="#1E1E1E" stroke-width="0.4" stroke-miterlimit="10"/>
<path d="M118.306 83.1372H114.258V86.9963H118.306V83.1372Z" stroke="#1E1E1E" stroke-width="0.4" stroke-miterlimit="10"/>
<path d="M115.717 83.1399V87.0077" stroke="#1E1E1E" stroke-width="0.4" stroke-miterlimit="10"/>
<path d="M113.207 83.1399V87.0077" stroke="#1E1E1E" stroke-width="0.4" stroke-miterlimit="10"/>
<path d="M119.508 83.1399V87.0077" stroke="#1E1E1E" stroke-width="0.4" stroke-miterlimit="10"/>
<path d="M117.047 83.1399V87.0077" stroke="#1E1E1E" stroke-width="0.4" stroke-miterlimit="10"/>
<path d="M112.277 86.9963H120.323" stroke="#1E1E1E" stroke-width="0.4" stroke-miterlimit="10"/>
<path d="M112.311 85.1345H120.356" stroke="#1E1E1E" stroke-width="0.4" stroke-miterlimit="10"/>
<path d="M113.141 83.1399H119.491" stroke="#1E1E1E" stroke-width="0.4" stroke-miterlimit="10"/>
<path d="M9.81445 80.1475V91.3844" stroke="#1E1E1E" stroke-width="0.4" stroke-miterlimit="10"/>
<path d="M130.363 80.1809V91.4179" stroke="#1E1E1E" stroke-width="0.4" stroke-miterlimit="10"/>
<path d="M16.308 101.514C15.9047 100.671 15.2172 99.9574 14.2556 99.3677C13.2941 98.7832 12.0792 98.4883 10.6162 98.4883C9.61334 98.4883 8.69832 98.6435 7.87119 98.9642C7.04406 99.2849 6.38752 99.7143 5.90675 100.268C5.42597 100.821 5.183 101.432 5.183 102.099C5.183 102.59 5.30707 103.071 5.56038 103.547C5.92742 104.194 6.5271 104.727 7.36457 105.14C8.20204 105.554 9.38071 106.02 10.9057 106.547C12.0999 106.951 13.0718 107.313 13.8214 107.639C14.571 107.965 15.2585 108.373 15.8892 108.865C16.5147 109.356 16.9542 109.936 17.2023 110.603C17.3367 110.955 17.4039 111.358 17.4039 111.813C17.4039 112.62 17.1403 113.401 16.6078 114.157C16.0753 114.912 15.2792 115.527 14.2091 116.008C13.139 116.489 11.8363 116.733 10.2957 116.733C7.86602 116.733 5.9998 116.267 4.69189 115.336C3.38398 114.405 2.59304 113.267 2.32422 111.917L2.84635 111.891C3.24958 113.065 4.03535 114.063 5.19851 114.876C6.36167 115.688 7.90221 116.102 9.80462 116.102C10.7662 116.102 11.5985 115.941 12.3015 115.626C13.0046 115.31 13.5371 114.896 13.9041 114.389C14.2711 113.882 14.4521 113.334 14.4521 112.76C14.4521 112.144 14.2401 111.586 13.8162 111.079C13.2941 110.463 12.6272 109.956 11.8104 109.553C10.9936 109.149 9.87699 108.704 8.47086 108.213C7.1216 107.722 6.06183 107.292 5.29156 106.925C4.52129 106.558 3.86476 106.072 3.32712 105.466C2.78948 104.861 2.52066 104.101 2.52066 103.19C2.52066 102.228 2.84635 101.349 3.50289 100.557C4.15942 99.766 5.08478 99.1297 6.26862 98.6694C7.45245 98.2142 8.79655 97.9866 10.3009 97.9866C10.7041 97.9866 11.004 97.9969 11.1952 98.0124C12.7565 98.1004 14.0127 98.4832 14.9639 99.1556C15.9151 99.8332 16.5561 100.614 16.887 101.509H16.308V101.514Z" fill="#1E1E1E"/>
<path d="M33.5686 98.9744C34.7525 99.5434 35.652 100.288 36.2671 101.209C36.8823 102.13 37.1925 103.107 37.1925 104.142C37.1925 105.177 36.8978 106.046 36.3085 106.904C35.7192 107.763 34.8403 108.461 33.6668 108.994C32.4933 109.532 31.0562 109.796 29.3606 109.796H24.7648C24.7648 111.513 24.801 113.758 24.8785 116.531H21.875C21.9732 113.412 22.0197 110.339 22.0197 107.323C22.0197 104.307 21.9732 101.219 21.875 98.1157H29.3296C30.9683 98.1157 32.3796 98.4002 33.5634 98.9692L33.5686 98.9744ZM28.7299 109.247C29.9602 109.247 31.0148 109.004 31.8782 108.523C32.7466 108.042 33.3928 107.411 33.8271 106.63C34.2613 105.849 34.4785 105.011 34.4785 104.116C34.4785 103.221 34.251 102.306 33.8012 101.473C33.3463 100.64 32.6898 99.9676 31.8213 99.4606C30.9528 98.9537 29.9137 98.6951 28.6989 98.6951L24.8579 98.7209C24.801 101.106 24.77 103.713 24.77 106.532V109.242H28.7299V109.247Z" fill="#1E1E1E"/>
<path d="M55.5141 115.931V116.536H41.9336C42.0318 113.417 42.0783 110.344 42.0783 107.329C42.0783 104.313 42.0318 101.225 41.9336 98.1211H54.7904V98.6953H44.9113C44.8544 101.08 44.8234 103.661 44.8234 106.429V108.244H51.9574V108.849H44.8234C44.8234 111.394 44.8544 113.769 44.9113 115.977L55.5141 115.926V115.931Z" fill="#1E1E1E"/>
<path d="M74.8993 98.1211H75.5662V116.536H74.6409C73.4674 115.01 71.994 113.257 70.2209 111.275C68.4477 109.294 66.08 106.687 63.1127 103.465L60.6571 100.78V116.536H59.9902V98.1211H62.2752C63.4125 99.5591 64.6274 101.018 65.9301 102.502C67.2277 103.987 68.8819 105.828 70.8826 108.042C72.6144 109.956 73.9533 111.446 74.8993 112.517V98.1211Z" fill="#1E1E1E"/>
<path d="M99.1093 112.062C98.5871 113.339 97.6566 114.431 96.3073 115.326C94.9581 116.22 93.2263 116.665 91.1067 116.665C88.8166 116.665 86.8521 116.22 85.2289 115.336C83.6005 114.451 82.3753 113.293 81.5585 111.865C80.7417 110.437 80.3281 108.916 80.3281 107.303C80.3281 105.689 80.7365 104.168 81.5585 102.74C82.3753 101.313 83.5901 100.154 85.1979 99.2693C86.8056 98.3848 88.7391 97.9399 90.993 97.9399C93.2469 97.9399 95.0201 98.39 96.3694 99.2797C97.7186 100.175 98.613 101.261 99.0576 102.544L97.0621 102.57C96.6951 101.395 96.0178 100.397 95.0253 99.5849C94.0327 98.7676 92.7455 98.3589 91.1688 98.3589C89.4369 98.3589 87.9688 98.7417 86.7643 99.5021C85.5598 100.263 84.6551 101.271 84.0502 102.528C83.4454 103.78 83.1404 105.135 83.1404 106.594C83.1404 108.053 83.4506 109.48 84.0657 110.83C84.6809 112.18 85.5908 113.303 86.7953 114.198C87.9998 115.093 89.4266 115.61 91.086 115.75C91.3342 115.786 91.7012 115.801 92.182 115.801C93.7794 115.801 95.1287 115.439 96.2246 114.71C97.3206 113.981 98.1115 113.091 98.5923 112.041L99.1144 112.067L99.1093 112.062Z" fill="#1E1E1E"/>
<path d="M117.198 115.931V116.536H103.617C103.715 113.417 103.762 110.344 103.762 107.329C103.762 104.313 103.715 101.225 103.617 98.1211H116.474V98.6953H106.595C106.538 101.08 106.507 103.661 106.507 106.429V108.244H113.641V108.849H106.507C106.507 111.394 106.538 113.769 106.595 115.977L117.198 115.926V115.931Z" fill="#1E1E1E"/>
<path d="M135.126 110.929C135.772 111.596 136.449 112.481 137.163 113.588C137.721 114.467 138.212 115.129 138.636 115.589C139.06 116.045 139.577 116.36 140.197 116.536C139.484 116.779 138.76 116.903 138.031 116.903C136.894 116.903 136.036 116.552 135.462 115.853C135.25 115.662 135.064 115.419 134.898 115.129C134.733 114.839 134.5 114.389 134.19 113.774C133.802 112.982 133.461 112.336 133.167 111.829C132.872 111.322 132.479 110.867 131.998 110.463C131.517 110.06 130.949 109.817 130.292 109.729H124.569C124.569 111.467 124.606 113.738 124.683 116.541H121.68C121.778 113.422 121.824 110.349 121.824 107.334C121.824 104.318 121.778 101.23 121.68 98.1262H129.45C131.088 98.1262 132.494 98.4107 133.668 98.9797C134.841 99.5487 135.731 100.294 136.325 101.214C136.92 102.135 137.219 103.113 137.219 104.147C137.219 105.358 136.816 106.454 136.005 107.437C135.193 108.42 134.04 109.092 132.536 109.465C133.616 109.78 134.474 110.272 135.121 110.939L135.126 110.929ZM124.652 98.7263C124.595 101.111 124.564 103.697 124.564 106.485V109.17H129.388C129.563 109.154 129.801 109.144 130.111 109.144C131.037 109.056 131.833 108.767 132.494 108.275C133.161 107.784 133.658 107.168 133.999 106.434C134.335 105.699 134.505 104.918 134.505 104.09C134.505 103.159 134.288 102.285 133.854 101.457C133.42 100.63 132.774 99.9677 131.921 99.4556C131.062 98.9487 130.029 98.69 128.814 98.69L124.652 98.7159V98.7263Z" fill="#1E1E1E"/>
<path d="M38.091 125.019C38.0134 127.492 37.9772 130.559 37.9772 134.227C37.9772 137.894 38.0134 140.925 38.091 143.434H35.0874C35.165 141.137 35.2012 138.328 35.2012 135.018H24.8C24.8 138.334 24.8361 141.137 24.9137 143.434H21.9102C22.0084 140.315 22.0549 137.242 22.0549 134.227C22.0549 131.211 22.0084 128.123 21.9102 125.019H24.9137C24.8361 128.174 24.8 130.73 24.8 132.675V134.413H35.2012V132.675C35.2012 130.73 35.1598 128.174 35.0874 125.019H38.091Z" fill="#1E1E1E"/>
<path d="M53.2029 143.801C50.9851 143.801 49.0672 143.32 47.4388 142.353C45.8104 141.391 44.58 140.134 43.7425 138.592C42.9051 137.051 42.4863 135.427 42.4863 133.725C42.4863 132.183 42.8379 130.745 43.5409 129.411C44.244 128.076 45.3141 126.974 46.7461 126.095C48.1832 125.216 49.9305 124.719 51.988 124.595C52.1793 124.579 52.4688 124.569 52.8565 124.569C55.0691 124.569 56.9819 125.045 58.5896 126.002C60.1973 126.959 61.4174 128.2 62.2445 129.737C63.0716 131.273 63.4852 132.887 63.4852 134.589C63.4852 136.047 63.1699 137.423 62.5443 138.722C61.9188 140.02 60.9728 141.112 59.7114 141.996C58.45 142.881 56.9147 143.439 55.1053 143.667C54.3712 143.755 53.7354 143.796 53.1977 143.796L53.2029 143.801ZM58.145 141.918C59.0135 141.158 59.6597 140.201 60.0836 139.053C60.5075 137.904 60.7195 136.663 60.7195 135.328C60.7195 133.575 60.3731 131.883 59.6804 130.249C58.9877 128.619 57.9796 127.305 56.6613 126.317C55.3431 125.324 53.8026 124.885 52.0501 124.988C50.5457 125.076 49.2843 125.49 48.2659 126.24C47.2475 126.985 46.4876 127.952 45.9965 129.131C45.5054 130.316 45.2572 131.609 45.2572 133.011C45.2572 134.713 45.6088 136.363 46.3118 137.956C47.0149 139.549 48.023 140.853 49.3309 141.862C50.6388 142.87 52.1638 143.372 53.8956 143.372C54.2213 143.372 54.578 143.346 54.9657 143.294C56.2168 143.134 57.2765 142.674 58.145 141.913V141.918Z" fill="#1E1E1E"/>
<path d="M67.9654 124.993H70.7673L70.6795 137.201C70.6588 139.342 71.2171 140.848 72.3544 141.727C73.4917 142.606 74.934 143.041 76.6865 143.041C78.5941 143.041 80.0106 142.508 80.9308 141.448C81.8561 140.387 82.3162 138.892 82.3162 136.963L82.2852 125.019H82.9779V136.937C82.9779 138.97 82.492 140.573 81.5201 141.737C80.5482 142.901 79.0025 143.506 76.883 143.537C74.4739 143.589 72.3906 143.206 70.6278 142.379C68.8649 141.551 67.9861 139.917 67.9861 137.46L67.9551 124.988L67.9654 124.993Z" fill="#1E1E1E"/>
<path d="M101.445 128.412C101.041 127.569 100.354 126.855 99.3924 126.266C98.4308 125.681 97.216 125.386 95.753 125.386C94.7501 125.386 93.835 125.542 93.0079 125.862C92.1808 126.178 91.5242 126.612 91.0435 127.166C90.5627 127.719 90.3197 128.33 90.3197 128.997C90.3197 129.488 90.4438 129.969 90.6971 130.445C91.0641 131.092 91.6638 131.625 92.5013 132.038C93.3388 132.452 94.5174 132.918 96.0425 133.445C97.2366 133.849 98.2085 134.211 98.9581 134.537C99.7077 134.863 100.395 135.271 101.026 135.763C101.651 136.254 102.091 136.834 102.339 137.501C102.473 137.853 102.541 138.256 102.541 138.711C102.541 139.518 102.277 140.299 101.745 141.055C101.212 141.81 100.416 142.425 99.3458 142.906C98.2757 143.387 96.973 143.631 95.4324 143.631C93.0079 143.631 91.1365 143.165 89.8286 142.234C88.5207 141.303 87.7298 140.165 87.4609 138.815L87.9831 138.789C88.3863 139.963 89.1721 140.961 90.3352 141.774C91.4984 142.591 93.0389 143 94.9413 143C95.9029 143 96.7352 142.839 97.4383 142.524C98.1413 142.208 98.6738 141.794 99.0408 141.287C99.4079 140.78 99.5888 140.232 99.5888 139.658C99.5888 139.042 99.3768 138.484 98.9529 137.977C98.4308 137.361 97.7639 136.854 96.9471 136.451C96.1303 136.047 95.0137 135.602 93.6076 135.111C92.2583 134.62 91.1986 134.19 90.4283 133.823C89.658 133.456 89.0015 132.97 88.4638 132.364C87.9262 131.759 87.6574 130.999 87.6574 130.088C87.6574 129.126 87.9831 128.247 88.6396 127.455C89.2961 126.664 90.2163 126.043 91.4002 125.588C92.584 125.133 93.9281 124.905 95.4324 124.905C95.8357 124.905 96.1355 124.916 96.3268 124.931C97.888 125.019 99.1442 125.402 100.095 126.074C101.047 126.752 101.688 127.533 102.019 128.428H101.44L101.445 128.412Z" fill="#1E1E1E"/>
<path d="M120.598 142.829V143.434H107.018C107.116 140.315 107.162 137.242 107.162 134.227C107.162 131.211 107.116 128.123 107.018 125.019H119.874V125.598H109.995C109.938 127.983 109.907 130.564 109.907 133.332V135.147H117.041V135.752H109.907C109.907 138.297 109.938 140.672 109.995 142.881L120.598 142.829Z" fill="#1E1E1E"/>
</svg>
