<svg width="165" height="10" viewBox="0 0 165 10" fill="none" xmlns="http://www.w3.org/2000/svg">
<path d="M7.284 4.8H8.136V8.004C7.744 8.348 7.28 8.612 6.744 8.796C6.208 8.98 5.644 9.072 5.052 9.072C4.212 9.072 3.456 8.888 2.784 8.52C2.112 8.152 1.584 7.644 1.2 6.996C0.816 6.34 0.624 5.608 0.624 4.8C0.624 3.992 0.816 3.264 1.2 2.616C1.584 1.96 2.112 1.448 2.784 1.08C3.456 0.712 4.216 0.528 5.064 0.528C5.704 0.528 6.292 0.632 6.828 0.84C7.364 1.04 7.816 1.34 8.184 1.74L7.632 2.304C6.968 1.648 6.124 1.32 5.1 1.32C4.42 1.32 3.804 1.472 3.252 1.776C2.708 2.072 2.28 2.488 1.968 3.024C1.656 3.552 1.5 4.144 1.5 4.8C1.5 5.456 1.656 6.048 1.968 6.576C2.28 7.104 2.708 7.52 3.252 7.824C3.796 8.128 4.408 8.28 5.088 8.28C5.952 8.28 6.684 8.064 7.284 7.632V4.8ZM19.0579 6.756H14.3779L13.3699 9H12.4459L16.2859 0.599999H17.1619L21.0019 9H20.0659L19.0579 6.756ZM18.7339 6.036L16.7179 1.524L14.7019 6.036H18.7339ZM30.8241 4.668C31.3761 4.788 31.8001 5.028 32.0961 5.388C32.4001 5.74 32.5521 6.196 32.5521 6.756C32.5521 7.476 32.2841 8.032 31.7481 8.424C31.2201 8.808 30.4361 9 29.3961 9H25.5321V0.599999H29.1561C30.0921 0.599999 30.8161 0.787999 31.3281 1.164C31.8481 1.54 32.1081 2.072 32.1081 2.76C32.1081 3.224 31.9921 3.62 31.7601 3.948C31.5361 4.268 31.2241 4.508 30.8241 4.668ZM26.4201 1.332V4.38H29.0961C29.7761 4.38 30.3001 4.252 30.6681 3.996C31.0361 3.732 31.2201 3.352 31.2201 2.856C31.2201 2.36 31.0361 1.984 30.6681 1.728C30.3001 1.464 29.7761 1.332 29.0961 1.332H26.4201ZM29.3841 8.268C30.1361 8.268 30.7041 8.14 31.0881 7.884C31.4721 7.628 31.6641 7.228 31.6641 6.684C31.6641 5.636 30.9041 5.112 29.3841 5.112H26.4201V8.268H29.3841ZM43.4556 9L41.5356 6.3C41.3196 6.324 41.0956 6.336 40.8636 6.336H38.6076V9H37.7196V0.599999H40.8636C41.9356 0.599999 42.7756 0.855999 43.3836 1.368C43.9916 1.88 44.2956 2.584 44.2956 3.48C44.2956 4.136 44.1276 4.692 43.7916 5.148C43.4636 5.596 42.9916 5.92 42.3756 6.12L44.4276 9H43.4556ZM40.8396 5.58C41.6716 5.58 42.3076 5.396 42.7476 5.028C43.1876 4.66 43.4076 4.144 43.4076 3.48C43.4076 2.8 43.1876 2.28 42.7476 1.92C42.3076 1.552 41.6716 1.368 40.8396 1.368H38.6076V5.58H40.8396ZM49.5321 0.599999H50.4201V9H49.5321V0.599999ZM62.2338 8.232V9H56.2938V0.599999H62.0538V1.368H57.1818V4.356H61.5258V5.112H57.1818V8.232H62.2338ZM67.4618 0.599999H68.3498V8.232H73.0538V9H67.4618V0.599999ZM77.6688 0.599999H78.5568V8.232H83.2608V9H77.6688V0.599999ZM93.1438 6.756H88.4638L87.4558 9H86.5318L90.3718 0.599999H91.2478L95.0878 9H94.1518L93.1438 6.756ZM92.8198 6.036L90.8038 1.524L88.7878 6.036H92.8198ZM113.081 9.072C112.601 9.072 112.157 8.968 111.749 8.76C111.341 8.552 111.009 8.256 110.752 7.872L111.281 7.272C111.745 7.96 112.349 8.304 113.093 8.304C114.133 8.304 114.653 7.688 114.653 6.456V1.368H111.581V0.599999H115.529V6.42C115.529 7.3 115.321 7.964 114.905 8.412C114.497 8.852 113.889 9.072 113.081 9.072ZM125.005 9.072C124.173 9.072 123.417 8.888 122.737 8.52C122.065 8.144 121.537 7.632 121.153 6.984C120.777 6.336 120.589 5.608 120.589 4.8C120.589 3.992 120.777 3.264 121.153 2.616C121.537 1.968 122.065 1.46 122.737 1.092C123.417 0.716 124.173 0.528 125.005 0.528C125.837 0.528 126.585 0.712 127.249 1.08C127.921 1.448 128.449 1.96 128.833 2.616C129.217 3.264 129.409 3.992 129.409 4.8C129.409 5.608 129.217 6.34 128.833 6.996C128.449 7.644 127.921 8.152 127.249 8.52C126.585 8.888 125.837 9.072 125.005 9.072ZM125.005 8.28C125.669 8.28 126.269 8.132 126.805 7.836C127.341 7.532 127.761 7.116 128.065 6.588C128.369 6.052 128.521 5.456 128.521 4.8C128.521 4.144 128.369 3.552 128.065 3.024C127.761 2.488 127.341 2.072 126.805 1.776C126.269 1.472 125.669 1.32 125.005 1.32C124.341 1.32 123.737 1.472 123.193 1.776C122.657 2.072 122.233 2.488 121.921 3.024C121.617 3.552 121.465 4.144 121.465 4.8C121.465 5.456 121.617 6.052 121.921 6.588C122.233 7.116 122.657 7.532 123.193 7.836C123.737 8.132 124.341 8.28 125.005 8.28ZM141.56 0.599999V9H140.828L135.428 2.184V9H134.54V0.599999H135.272L140.684 7.416V0.599999H141.56ZM153.382 8.232V9H147.442V0.599999H153.202V1.368H148.33V4.356H152.674V5.112H148.33V8.232H153.382ZM160.926 9.072C160.302 9.072 159.702 8.972 159.126 8.772C158.558 8.572 158.118 8.308 157.806 7.98L158.154 7.296C158.458 7.6 158.862 7.848 159.366 8.04C159.87 8.224 160.39 8.316 160.926 8.316C161.678 8.316 162.242 8.18 162.618 7.908C162.994 7.628 163.182 7.268 163.182 6.828C163.182 6.492 163.078 6.224 162.87 6.024C162.67 5.824 162.422 5.672 162.126 5.568C161.83 5.456 161.418 5.336 160.89 5.208C160.258 5.048 159.754 4.896 159.378 4.752C159.002 4.6 158.678 4.372 158.406 4.068C158.142 3.764 158.01 3.352 158.01 2.832C158.01 2.408 158.122 2.024 158.346 1.68C158.57 1.328 158.914 1.048 159.378 0.84C159.842 0.632 160.418 0.528 161.106 0.528C161.586 0.528 162.054 0.596 162.51 0.732C162.974 0.86 163.374 1.04 163.71 1.272L163.41 1.98C163.058 1.748 162.682 1.576 162.282 1.464C161.882 1.344 161.49 1.284 161.106 1.284C160.37 1.284 159.814 1.428 159.438 1.716C159.07 1.996 158.886 2.36 158.886 2.808C158.886 3.144 158.986 3.416 159.186 3.624C159.394 3.824 159.65 3.98 159.954 4.092C160.266 4.196 160.682 4.312 161.202 4.44C161.818 4.592 162.314 4.744 162.69 4.896C163.074 5.04 163.398 5.264 163.662 5.568C163.926 5.864 164.058 6.268 164.058 6.78C164.058 7.204 163.942 7.592 163.71 7.944C163.486 8.288 163.138 8.564 162.666 8.772C162.194 8.972 161.614 9.072 160.926 9.072Z" fill="#EEEEEE"/>
</svg>
