<svg xmlns="http://www.w3.org/2000/svg" width="43.068" height="35" viewBox="0 0 43.068 35">
  <path id="twitter" d="M43.068,6.392a17.641,17.641,0,0,1-5.075,1.391,8.85,8.85,0,0,0,3.885-4.888,17.7,17.7,0,0,1-5.611,2.144A8.842,8.842,0,0,0,21.209,13.1,25.084,25.084,0,0,1,3,3.865a8.848,8.848,0,0,0,2.733,11.8,8.8,8.8,0,0,1-4-1.105,8.842,8.842,0,0,0,7.086,8.775,8.856,8.856,0,0,1-3.991.151,8.842,8.842,0,0,0,8.255,6.135A17.766,17.766,0,0,1,0,33.279a25.014,25.014,0,0,0,13.545,3.969c16.405,0,25.674-13.855,25.114-26.282a17.989,17.989,0,0,0,4.409-4.574Z" transform="translate(0 -2.248)" fill="#fff"/>
</svg>
