<svg xmlns="http://www.w3.org/2000/svg" width="29.167" height="35" viewBox="0 0 29.167 35">
  <path id="youtube" d="M5.868,0h2.1L9.408,5.4,10.744,0h2.12L10.437,8.028v5.479H8.35V8.028Zm9.616,3.461A2.549,2.549,0,0,0,12.77,6.137v4.884a2.4,2.4,0,0,0,2.714,2.67,2.537,2.537,0,0,0,2.663-2.67V6.137a2.6,2.6,0,0,0-2.663-2.676Zm.774,7.477c0,.543-.277.942-.776.942a.84.84,0,0,1-.808-.942V6.3c0-.545.251-.949.771-.949.569,0,.812.392.812.949Zm6.9-7.394v7.563c-.226.283-.729.747-1.089.747-.4,0-.493-.271-.493-.671V3.544H19.72v8.327c0,.984.3,1.779,1.294,1.779a2.929,2.929,0,0,0,2.141-1.244v1.1h1.852V3.544Zm3.213,20.21c-.653,0-.789.459-.789,1.113v.961h1.559v-.963c0-.642-.134-1.111-.77-1.111Zm-6.859.058a1.352,1.352,0,0,0-.365.289v5.914a1.547,1.547,0,0,0,.419.334.75.75,0,0,0,.9-.1,1.093,1.093,0,0,0,.153-.655V24.7a1.2,1.2,0,0,0-.188-.729.735.735,0,0,0-.922-.156Zm7.039-7.576c-3.8-.258-16.138-.258-19.93,0-4.1.28-4.588,2.759-4.619,9.285.031,6.514.51,9.005,4.619,9.285,3.792.258,16.132.258,19.93,0,4.1-.28,4.588-2.761,4.619-9.285C31.136,19.007,30.657,16.516,26.548,16.236ZM8.576,31.82H6.588v-11H4.532V18.957h6.1v1.867H8.574v11Zm7.067,0H13.878V30.773a3.857,3.857,0,0,1-1.015.882c-.951.545-2.256.532-2.256-1.393v-7.93H12.37v7.274c0,.382.092.639.47.639.344,0,.823-.442,1.037-.71v-7.2h1.765V31.82Zm6.792-1.966c0,1.174-.439,2.087-1.613,2.087a2.017,2.017,0,0,1-1.676-.85v.729H17.365V18.957h1.781V23.1a2.117,2.117,0,0,1,1.569-.887c1.292,0,1.721,1.092,1.721,2.379v5.263Zm6.52-2.555H25.58V29.09c0,.712.061,1.327.77,1.327.745,0,.789-.5.789-1.327v-.659h1.816v.713c0,1.827-.785,2.936-2.644,2.936-1.684,0-2.546-1.228-2.546-2.936v-4.26a2.609,2.609,0,0,1,2.679-2.791c1.693,0,2.51,1.076,2.51,2.791V27.3Z" transform="translate(-2)"/>
</svg>
